<?xml version="1.0" encoding="UTF-8"?><svg id="a" xmlns="http://www.w3.org/2000/svg" viewBox="0 0 700 700"><defs><style>.b{fill:#fff;}.c{fill:#2f476b;}</style></defs><rect class="c" width="700" height="700"/><g><path class="b" d="M157.96,548.65V172.06c0-2.73,2.21-4.94,4.94-4.94h71.56c15.52,0,28.11-12.58,28.11-28.11h0c0-15.52-12.58-28.11-28.11-28.11H119.34c-8.09,0-14.65,6.56-14.65,14.65v469.61c0,8.09,6.56,14.65,14.65,14.65h115.12c15.52,0,28.11-12.58,28.11-28.11h0c0-15.52-12.58-28.11-28.11-28.11h-71.56c-2.73,0-4.94-2.21-4.94-4.94Z"/><path class="b" d="M308.34,104.58v511.56c0,15.79,14.87,27.91,31.48,25.66l231.87-31.46c13.55-1.84,23.62-12.77,23.62-25.66V136.04c0-12.89-10.06-23.82-23.62-25.66l-231.87-31.46c-16.61-2.25-31.48,9.87-31.48,25.66Zm221.67,455.46l-151.95,18.4c-7.2,.87-13.57-4.4-13.57-11.23V155.08c0-7.67,7.16-13.59,15.23-12.61l146.44,17.73c7.43,.9,12.99,6.85,12.99,13.9v376.14c0,4.96-3.92,9.15-9.15,9.79Z"/><circle class="b" cx="412.86" cy="351.17" r="21.6"/></g></svg>