<?xml version="1.0" encoding="UTF-8"?><svg xmlns="http://www.w3.org/2000/svg" viewBox="0 0 700 700"><defs><style>.d{fill:#fff;}.e{fill:#295ba7;fill-rule:evenodd;}</style></defs><g id="a"/><g id="b"><g id="c"><rect class="d" width="700" height="700"/><path class="e" d="M97.1,447.85h19.87v21.85h35.5v-21.85h19.62v61.32h-19.62v-25.82h-35.75v25.57h-19.62v-61.07h0Zm77.22,0h19.36l20.36,23.59,20.11-23.59h19.12l-29.55,37.49v23.83h-19.61v-25.57l-29.79-35.75h0Zm81.43,0h19.62v47.42h31.53c4.97,0,8.19-4.96,8.19-10.18v-37.24h19.61v48.91c0,7.69-8.69,12.16-13.65,12.16h-65.29v-61.07h0Zm83.17,0h65.3c7.7,0,13.9,4.71,13.9,14.28v46.91l-19.61,.12v-37.24c0-5.2-1.74-8.31-8.44-8.31h-29.54v45.68h-21.6v-61.45Zm85.17,0h57.1c11.43,0,20.24,9.18,20.24,16.26v28.18c-.13,4.96-7.08,16.88-15.77,16.88h-61.57v-61.31h0Zm19.98,47.67h30.14c4.34,0,7.7-3.23,7.7-7.21v-17.87c0-4.35-3.57-6.94-8.16-6.94h-29.67v32.02h0Zm81.57-47.93h61.2v61.58h-21.85v-15.88h-37.62v15.88h-22.09v-39.97c-.5-13.4,11.42-21.6,20.36-21.6h0Zm1.48,21.86v9.92h37.74v-15.65h-31.79c-3.72,0-5.96,2.24-5.96,5.73Zm63.69-21.73h19.61v63.3h-19.61v-63.3ZM353.76,162.13c-131.21,0-237.59,52.52-237.59,117.29s106.38,117.3,237.59,117.3,237.59-52.52,237.59-117.3c0-64.76-106.39-117.29-237.59-117.29h0Zm-22.54,26.11c27.12-9.59,107.69,0,138.98,15.03,10.02,9.61-44.66,40.47-109.76,53.84-93.07,18.77-48.84-53.02-29.22-68.88Zm-159.84,138.98c-20.46-14.59-60.52-56.34,5.84-99.74,35.06-20.45,54.67-25.05,78.87-30.05,11.69-2.51,20.04,.41,9.6,9.18-22.12,22.96-68.03,98.9-72.19,115.61-3.35,11.28-10.02,14.18-22.12,5h0Zm191.13,48.43c-39.22,4.16-126.44-8.77-128.12-20.02,1.68-27.15,138.56-72.22,163.18-47.18,10.44,19.61-9.59,65.94-35.06,67.2Zm199.5-78.9c-10.02,22.96-43.82,48.85-114.77,66.38-10.86,2.49-14.62-4.18-7.52-10.44,11.7-7.09,68.04-101.41,75.13-120.2,4.18-9.61,12.1-5.83,17.12-2.09,22.54,14.6,39.65,38.4,30.05,66.35h0Z"/></g></g></svg>