<?xml version="1.0" encoding="UTF-8"?><svg xmlns="http://www.w3.org/2000/svg" viewBox="0 0 700 700"><defs><style>.d{fill:#fff;}</style></defs><g id="a"/><g id="b"><g id="c"><rect class="d" width="700" height="700"/><path d="M391.6,384.8c0,1,.5,1.5,1,1.5s1,0,1-.5l161.6-105.2c2.7-2,5.9-3.1,9.2-3.1h35.4c4.7-.4,8.9,3.1,9.2,7.9v69.1c0,8.2-2.1,12.8-9.2,17.4l-43.1,25.7c-.4,.4-1,.6-1.5,.5-.5,0-1-.5-1-2.1v-79.1c0-1-.5-1.5-1-1.5s-1,0-1,.5l-118,77c-2.7,1.8-6,2.7-9.2,2.6h-78c-4.7,.4-8.9-3.1-9.2-7.9v-98.9c0-.5-.5-1.5-1-1.5s-1,0-1,.5l-78,47.2c-1,.5-1,1-1,1q0,.5,.5,1l55.4,55.4c.5,.6,.9,1.3,1,2.1,0,.5-1,1-1.5,1h-50.3c-3.3,.4-6.6-.5-9.2-2.6l-33.8-33.8q-.5-.5-1-.5t-1,.5l-56.7,34c-2.7,1.8-6,2.7-9.2,2.6h-50.8c-4.7,.4-8.9-3.1-9.2-7.9v-68.1c0-8.2,2.1-12.8,9.2-17.4l43.1-26.2c.3-.3,.6-.5,1-.5,.5,0,1,.5,1,2.1v88.6c0,1,.5,1.5,1,1.5,.6,.1,1.1-.1,1.5-.5l146.3-88.2c2.9-1.9,6.3-2.8,9.7-2.6h79c4.7-.4,8.9,3.1,9.2,7.9v100.4l-.4,.1Z"/></g></g></svg>