<?xml version="1.0" encoding="UTF-8"?><svg id="a" xmlns="http://www.w3.org/2000/svg" viewBox="0 0 700 700"><defs><style>.b{fill:#fff;}.c{fill:#4f76b1;}</style></defs><rect class="c" width="700" height="700"/><g><path class="b" d="M165.79,240.91c28.58,0,50.8-23.19,50.8-51.77s-22.22-51.77-50.8-51.77-51.77,23.19-51.77,51.77,23.19,51.77,51.77,51.77Z"/><path class="b" d="M192.97,255.29h-54.78c-36.26,0-65.66,29.4-65.66,65.66v101.86c0,22.58,16.09,41.39,37.43,45.61v119.25c0,10.47,8.49,18.96,18.96,18.96h71.84c10.98,0,19.88-8.9,19.88-19.88v-118.34c21.34-4.22,37.43-23.03,37.43-45.61v-102.42c0-35.95-29.15-65.1-65.1-65.1Z"/></g><g><path class="b" d="M508.44,240.91c28.58,0,50.8-23.19,50.8-51.77s-22.22-51.77-50.8-51.77-51.77,23.19-51.77,51.77,23.19,51.77,51.77,51.77Z"/><path class="b" d="M620.2,467.59l-41.72-192.3c-2.52-11.61-14.02-20-27.41-20h-86.23c-13.39,0-24.89,8.39-27.41,20l-41.72,192.3c-3.3,15.19,9.89,29.27,27.41,29.27h29.5v90.81c0,10.47,8.49,18.96,18.96,18.96h71.84c10.98,0,19.88-8.9,19.88-19.88v-89.89h29.5c17.52,0,30.7-14.08,27.41-29.27Z"/></g><rect class="b" x="312.21" y="137.37" width="48.85" height="469.25" rx="18.14" ry="18.14"/></svg>