<svg width="24" height="24" viewBox="0 0 24 24" fill="none" xmlns="http://www.w3.org/2000/svg">
<path fill-rule="evenodd" clip-rule="evenodd" d="M20.64 12.2042C20.64 11.566 20.5827 10.9524 20.4764 10.3633H12V13.8446H16.8436C16.635 14.9696 16.0009 15.9228 15.0477 16.561V18.8192H17.9564C19.6582 17.2524 20.64 14.9451 20.64 12.2042Z" fill="#4285F4"/>
<path fill-rule="evenodd" clip-rule="evenodd" d="M11.9998 21.0009C14.4298 21.0009 16.467 20.195 17.9561 18.8205L15.0475 16.5623C14.2416 17.1023 13.2107 17.4214 11.9998 17.4214C9.65567 17.4214 7.67158 15.8382 6.96385 13.7109H3.95703V16.0428C5.43794 18.9841 8.48158 21.0009 11.9998 21.0009Z" fill="#34A853"/>
<path fill-rule="evenodd" clip-rule="evenodd" d="M6.96409 13.7088C6.78409 13.1688 6.68182 12.592 6.68182 11.9988C6.68182 11.4057 6.78409 10.8288 6.96409 10.2888V7.95703H3.95727C3.34773 9.17203 3 10.5466 3 11.9988C3 13.4511 3.34773 14.8257 3.95727 16.0407L6.96409 13.7088Z" fill="#FBBC05"/>
<path fill-rule="evenodd" clip-rule="evenodd" d="M11.9998 6.57955C13.3211 6.57955 14.5075 7.03364 15.4402 7.92545L18.0216 5.34409C16.4629 3.89182 14.4257 3 11.9998 3C8.48158 3 5.43794 5.01682 3.95703 7.95818L6.96385 10.29C7.67158 8.16273 9.65567 6.57955 11.9998 6.57955Z" fill="#EA4335"/>
</svg>
