<?xml version="1.0" encoding="UTF-8"?><svg xmlns="http://www.w3.org/2000/svg" viewBox="0 0 414.58 201.6"><defs><style>.d{fill:#fff;}</style></defs><g id="a"/><g id="b"><g id="c"><g><path class="d" d="M90.02,72.4l-.7,3.25h-5.49l-3.2,15.1h-3.86l3.2-15.1h-5.52l.7-3.25h14.87Z"/><path class="d" d="M88.34,90.76l3.9-18.35h3.8l-1.49,7h7.17l1.49-7h3.81l-3.9,18.35h-3.81l1.73-8.19h-7.17l-1.73,8.19h-3.8Z"/><path class="d" d="M115.93,72.4h4.33l2.6,18.35h-4.16l-.39-3.77h-6.76l-2.07,3.77h-4.01l10.45-18.35Zm-2.66,11.42h4.66l-.76-7.22-3.9,7.22Z"/><path class="d" d="M128.7,90.76h-3.81l3.9-18.35h3.81l-3.9,18.35Z"/><path class="d" d="M136.17,72.4h3.83l-3.2,15.05h9.09l-.7,3.3h-12.92l3.9-18.35Z"/><path class="d" d="M157,72.4h4.33l2.6,18.35h-4.16l-.39-3.77h-6.76l-2.07,3.77h-4.01l10.45-18.35Zm-2.66,11.42h4.66l-.76-7.22-3.9,7.22Z"/><path class="d" d="M170.1,72.4h4.02l4.58,12.81,2.73-12.81h3.57l-3.9,18.35h-3.83l-4.73-13.04-2.76,13.04h-3.57l3.9-18.35Z"/><path class="d" d="M199.24,72.8c1.2,.42,2.07,1.2,2.63,2.33,.45,.91,.67,1.9,.68,2.96,0,1.06-.09,2.08-.29,3.04-.52,2.44-1.45,4.51-2.79,6.2-1.81,2.28-4.1,3.42-6.87,3.42h-7.91l3.9-18.35h7.91c1.13,.02,2.05,.15,2.75,.4Zm-7.62,2.79l-2.54,11.98h3.54c1.81,0,3.26-.89,4.36-2.68,.6-.98,1.04-2.15,1.32-3.5,.4-1.87,.41-3.3,.04-4.3-.37-1-1.43-1.5-3.17-1.5h-3.54Z"/><path class="d" d="M213.69,90.76h-3.81l3.9-18.35h3.81l-3.9,18.35Z"/><path class="d" d="M221.1,72.4h4.02l4.58,12.81,2.73-12.81h3.57l-3.9,18.35h-3.83l-4.73-13.04-2.76,13.04h-3.57l3.9-18.35Z"/><path class="d" d="M252.91,72.4l-.7,3.25h-5.49l-3.2,15.1h-3.86l3.2-15.1h-5.52l.7-3.25h14.87Z"/><path class="d" d="M268.03,75.65h-9.71l-.82,3.9h8.92l-.69,3.19h-8.91l-1,4.72h10.16l-.7,3.3h-13.91l3.9-18.35h13.46l-.7,3.25Z"/><path class="d" d="M285.61,74.16c.3,.46,.5,.98,.62,1.54s.09,1.21-.06,1.93c-.19,.87-.6,1.73-1.21,2.57-.62,.84-1.47,1.44-2.56,1.79,.77,.34,1.27,.82,1.49,1.45s.19,1.58-.08,2.87l-.26,1.23c-.17,.84-.26,1.41-.26,1.71,0,.47,.16,.82,.47,1.05l-.09,.46h-4.22c-.03-.41-.05-.73-.05-.98,0-.51,.07-1.04,.17-1.58l.34-1.71c.23-1.17,.18-1.95-.14-2.34-.33-.39-1.06-.59-2.19-.59h-3.96l-1.52,7.2h-3.75l3.9-18.35h9c1.28,.03,2.23,.18,2.86,.47,.63,.29,1.13,.72,1.49,1.28Zm-10.3,1.43l-1.05,4.93h4.35c.86,0,1.53-.1,2-.3,.84-.35,1.37-1.04,1.59-2.07,.23-1.11,.02-1.86-.63-2.24-.37-.22-.98-.32-1.81-.32h-4.46Z"/><path class="d" d="M290.52,72.4h4.02l4.58,12.81,2.73-12.81h3.57l-3.9,18.35h-3.83l-4.73-13.04-2.76,13.04h-3.57l3.9-18.35Z"/><path class="d" d="M314.25,72.4h4.33l2.6,18.35h-4.16l-.39-3.77h-6.76l-2.07,3.77h-4.01l10.45-18.35Zm-2.66,11.42h4.66l-.76-7.22-3.9,7.22Z"/><path class="d" d="M338.87,72.4l-.7,3.25h-5.49l-3.2,15.1h-3.86l3.2-15.1h-5.52l.7-3.25h14.87Z"/><path class="d" d="M340.72,90.76h-3.81l3.9-18.35h3.81l-3.9,18.35Z"/><path class="d" d="M358.76,89.13c-1.68,1.43-3.84,2.14-6.46,2.14s-4.48-.71-5.57-2.14c-1.49-1.75-1.88-4.28-1.17-7.57,.71-3.36,2.18-5.89,4.39-7.57,1.69-1.43,3.84-2.14,6.46-2.14s4.48,.71,5.57,2.14c1.49,1.68,1.88,4.21,1.17,7.57-.71,3.29-2.17,5.82-4.4,7.57Zm.56-7.57c.43-2.06,.32-3.65-.33-4.78-.65-1.12-1.74-1.69-3.26-1.69s-2.85,.56-3.99,1.68c-1.14,1.12-1.93,2.71-2.37,4.78-.44,2.07-.33,3.66,.34,4.78,.66,1.12,1.76,1.68,3.27,1.68s2.85-.56,3.98-1.68c1.13-1.12,1.92-2.71,2.36-4.78Z"/><path class="d" d="M367.96,72.4h4.02l4.58,12.81,2.73-12.81h3.57l-3.9,18.35h-3.83l-4.73-13.04-2.76,13.04h-3.57l3.9-18.35Z"/><path class="d" d="M391.69,72.4h4.33l2.6,18.35h-4.16l-.39-3.77h-6.76l-2.07,3.77h-4.01l10.45-18.35Zm-2.66,11.42h4.66l-.76-7.22-3.9,7.22Z"/><path class="d" d="M404.86,72.4h3.83l-3.2,15.05h9.09l-.7,3.3h-12.92l3.9-18.35Z"/></g><g><path class="d" d="M99.1,101.41h11.03l-7.79,36.71h-7.15l5.25-24.83c.17-.71,.39-1.71,.68-3,.29-1.29,.5-2.28,.64-2.98l-13.47,30.8h-7.45l-.37-30.8c-.13,.7-.33,1.69-.58,2.98-.26,1.29-.47,2.29-.64,3l-5.25,24.83h-7.15l7.79-36.71h11.16l.52,28.86,12.77-28.86Z"/><path class="d" d="M138.39,134.85c-3.37,2.86-7.68,4.28-12.92,4.28s-8.96-1.43-11.13-4.28c-2.97-3.5-3.75-8.55-2.34-15.14,1.43-6.72,4.36-11.77,8.79-15.14,3.37-2.85,7.68-4.28,12.92-4.28s8.96,1.43,11.13,4.28c2.99,3.37,3.77,8.42,2.34,15.14-1.41,6.59-4.34,11.64-8.79,15.14Zm1.12-15.14c.86-4.12,.64-7.3-.66-9.55-1.3-2.25-3.47-3.37-6.51-3.37s-5.7,1.12-7.98,3.36c-2.28,2.24-3.86,5.43-4.74,9.56s-.66,7.32,.67,9.56,3.51,3.36,6.55,3.36,5.69-1.12,7.96-3.36c2.27-2.24,3.84-5.43,4.72-9.56Z"/><path class="d" d="M183.59,101.41l-1.39,6.5h-10.98l-6.4,30.21h-7.72l6.4-30.21h-11.03l1.39-6.5h29.73Z"/><path class="d" d="M208.32,134.85c-3.37,2.86-7.68,4.28-12.92,4.28s-8.96-1.43-11.13-4.28c-2.97-3.5-3.75-8.55-2.34-15.14,1.43-6.72,4.36-11.77,8.79-15.14,3.37-2.85,7.68-4.28,12.92-4.28s8.96,1.43,11.13,4.28c2.99,3.37,3.77,8.42,2.34,15.14-1.41,6.59-4.34,11.64-8.79,15.14Zm1.12-15.14c.86-4.12,.64-7.3-.66-9.55-1.3-2.25-3.47-3.37-6.51-3.37s-5.7,1.12-7.98,3.36c-2.28,2.24-3.86,5.43-4.74,9.56s-.66,7.32,.67,9.56,3.51,3.36,6.55,3.36,5.69-1.12,7.96-3.36c2.27-2.24,3.84-5.43,4.72-9.56Z"/><path class="d" d="M253.74,104.92c.6,.93,1.01,1.96,1.23,3.09,.22,1.13,.19,2.42-.11,3.86-.38,1.74-1.19,3.46-2.43,5.14-1.24,1.68-2.94,2.88-5.12,3.57,1.54,.68,2.54,1.65,2.98,2.9,.44,1.25,.39,3.17-.16,5.74l-.52,2.47c-.35,1.68-.52,2.81-.52,3.41,0,.95,.32,1.64,.95,2.09l-.17,.92h-8.44c-.07-.81-.1-1.47-.1-1.97,.02-1.03,.13-2.08,.35-3.16l.67-3.41c.46-2.34,.37-3.9-.29-4.68-.66-.78-2.11-1.17-4.37-1.17h-7.92l-3.04,14.39h-7.5l7.79-36.71h18c2.56,.05,4.47,.37,5.73,.95,1.26,.58,2.26,1.44,2.99,2.56Zm-20.59,2.86l-2.09,9.86h8.69c1.73,0,3.06-.2,4.01-.6,1.68-.7,2.74-2.08,3.19-4.13,.46-2.22,.04-3.72-1.27-4.48-.75-.43-1.95-.65-3.61-.65h-8.92Z"/><path class="d" d="M303.59,107.91h-19.42l-1.64,7.79h17.83l-1.37,6.38h-17.83l-1.99,9.44h20.32l-1.39,6.6h-27.82l7.79-36.71h26.92l-1.39,6.5Z"/><path class="d" d="M309.92,138.12h-8.91l15.76-18.7-7.4-18h9.16l4.01,11.93,9.26-11.93h8.87l-14.99,17.71,7.89,19h-9.31l-4.33-12.5-10.01,12.5Z"/><path class="d" d="M356.46,124.92h-7.79l-2.79,13.2h-7.62l7.79-36.71h15.99c3.69,0,6.42,.95,8.21,2.84s2.26,4.82,1.43,8.79c-.93,4.33-2.68,7.4-5.25,9.19s-5.89,2.69-9.96,2.69Zm2.99-17.13h-7.15l-2.29,10.81h7.15c1.81,0,3.31-.44,4.51-1.32,1.2-.88,1.99-2.27,2.39-4.18,.42-1.91,.2-3.27-.63-4.08-.84-.81-2.16-1.22-3.97-1.22Z"/><path class="d" d="M401.04,134.85c-3.37,2.86-7.68,4.28-12.92,4.28s-8.96-1.43-11.13-4.28c-2.97-3.5-3.75-8.55-2.34-15.14,1.43-6.72,4.36-11.77,8.79-15.14,3.37-2.85,7.68-4.28,12.92-4.28s8.96,1.43,11.13,4.28c2.99,3.37,3.77,8.42,2.34,15.14-1.41,6.59-4.34,11.64-8.79,15.14Zm1.12-15.14c.86-4.12,.64-7.3-.66-9.55-1.3-2.25-3.47-3.37-6.51-3.37s-5.7,1.12-7.98,3.36c-2.28,2.24-3.86,5.43-4.74,9.56s-.66,7.32,.67,9.56,3.51,3.36,6.55,3.36,5.69-1.12,7.96-3.36c2.27-2.24,3.84-5.43,4.72-9.56Z"/></g><path class="d" d="M167.48,72.13c.3,.69,.6,1.37,.88,2.07-.28-.7-.58-1.38-.88-2.07Z"/><path class="d" d="M60.96,40.31c.32-.21,.64-.41,.96-.61-.32,.2-.64,.4-.96,.61Z"/><g><path class="d" d="M7.27,63.13c.55-1.36,1.13-2.71,1.73-4.03h-.03c.27-.59,.56-1.15,.84-1.73,.19-.4,.38-.79,.58-1.19,.95-1.92,1.93-3.82,3.01-5.66,1.18-2.06,2.44-4.08,3.76-6.04,1.8-2.67,3.74-5.24,5.78-7.72l21.88,18.05c-1.66,2.01-3.19,4.11-4.62,6.28-.2,.31-.4,.62-.6,.92-.51,.81-1.01,1.62-1.49,2.45-.67,1.16-1.32,2.33-1.92,3.52l-2.66,5.77L7.27,63.13Z"/><path class="d" d="M108.72,.3l-2.18,28.25c-2.37-.19-4.74-.25-7.1-.19h-.1c-.42,.02-.82,.03-1.23,.05-.63,.02-1.25,.05-1.86,.09-3.12,.2-6.23,.61-9.29,1.2-.57,.11-1.14,.21-1.71,.34-.66,.14-1.29,.31-1.95,.47-.61,.16-1.23,.3-1.84,.47-.6,.17-1.18,.36-1.77,.54-.66,.2-1.3,.38-1.96,.6-.58,.2-1.16,.42-1.75,.64-.63,.22-1.26,.44-1.88,.69-.7,.27-1.38,.58-2.07,.88-.44,.19-.88,.36-1.31,.55l-11.77-25.79c7.9-3.62,16.38-6.24,25.22-7.71,3.15-.52,6.34-.9,9.56-1.13,1.79-.12,3.56-.2,5.36-.23h0c.55-.02,1.1-.02,1.63-.02h.14c2.65,0,5.28,.1,7.86,.3Z"/><path class="d" d="M39.63,139.96l-23.89,15.26c-1.73-2.71-3.33-5.5-4.8-8.37-1.08-2.11-2.08-4.26-3.01-6.44l26.09-11.1c.05,.11,.1,.21,.15,.32,.36,.85,.75,1.68,1.15,2.51,.16,.34,.32,.69,.49,1.03,1.25,2.53,2.66,4.98,4.2,7.36-.13-.19-.26-.38-.38-.57Z"/><path class="d" d="M114.75,172.22l5.45,27.82c-2.32,.46-4.67,.83-7.02,1.12l-3.49-28.14,.36-.06c.91-.11,1.82-.26,2.73-.41,.37-.06,.75-.12,1.12-.19,.28-.05,.57-.08,.85-.14Z"/><path class="d" d="M70.78,167.04c1.04,.47,2.1,.92,3.17,1.35-.1-.04-.19-.07-.29-.11l-10.62,26.27c-1.36-.55-2.7-1.14-4.03-1.74v.03c-2.95-1.34-5.81-2.82-8.58-4.42l14.19-24.57c-.09-.05-.17-.1-.25-.15,2.08,1.21,4.22,2.33,6.41,3.34Z"/><path class="d" d="M179.29,37.39l-3.49,17.87h-18.51c-.14-.18-.3-.34-.45-.52-.59-.73-1.19-1.45-1.81-2.15-.91-1.02-1.85-2.01-2.83-2.97-1.87-1.88-3.84-3.66-5.91-5.32-.89-.71-1.81-1.4-2.74-2.07-.02-.01-.03-.03-.05-.04-2.11-1.52-4.31-2.94-6.56-4.23-.31-.18-.64-.35-.96-.53-.84-.46-1.67-.91-2.53-1.34-2.15-1.09-4.35-2.08-6.59-2.94-.39-.15-.78-.27-1.17-.42-.99-.36-1.99-.71-2.99-1.03-.09-.02-.19-.05-.28-.08-2.32-.72-4.69-1.33-7.07-1.82-.32-.07-.65-.12-.97-.18-.36-.07-.72-.14-1.08-.2-.08-.01-.17-.03-.25-.05l-.36-.06s-.11-.01-.17-.03c-.07-.02-.15-.03-.23-.04-.18-.03-.36-.06-.55-.09h-.02c-.16-.02-.32-.05-.48-.07-.21-.03-.42-.06-.63-.08,.15,0,.3,.03,.45,.05-.87-.12-1.74-.24-2.62-.33L111.35,.55c8.96,.93,17.58,3.02,25.69,6.13,3.01,1.16,5.96,2.45,8.83,3.88,2.12,1.07,4.21,2.2,6.25,3.4,2.77,1.64,5.46,3.4,8.05,5.29,7.15,5.2,13.57,11.29,19.12,18.14Z"/><path class="d" d="M47.3,51.94l-20.9-19.17c3.18-3.47,6.6-6.71,10.23-9.69h-.01c.2-.17,.4-.33,.6-.49,.86-.7,1.72-1.38,2.6-2.04,.44-.33,.88-.66,1.32-.99,.44-.33,.89-.65,1.34-.97,.62-.44,1.24-.87,1.86-1.3,.29-.2,.58-.39,.87-.57,.45-.3,.92-.6,1.38-.9,.25-.17,.5-.33,.76-.49,.05-.03,.11-.07,.17-.1,.61-.38,1.22-.76,1.84-1.12,.34-.2,.67-.39,1.01-.59,1.76-1.03,3.56-2,5.39-2.91l12.68,25.37c-1.6,.76-2.7,1.35-3.87,2.05-.01,0-.01,.01-.02,.02-.09,.05-.19,.14-.29,.2-.79,.47-1.57,.95-2.35,1.45-.21,.13-.42,.26-.62,.39-.11,.08-.22,.15-.33,.22-1.77,1.16-3.49,2.41-5.15,3.72-.55,.44-1.1,.89-1.64,1.34-.94,.79-1.86,1.61-2.76,2.44-.16,.14-.31,.29-.46,.43-.18,.16-.36,.33-.54,.51-.23,.21-.46,.43-.69,.65-.17,.17-.33,.36-.51,.53,.33-.33,.66-.66,1-.98-.34,.33-.67,.66-1,.99-.63,.64-1.26,1.28-1.86,1.95l-.05,.05Z"/><path class="d" d="M28.31,97.8l-28.31-1.19c.38-9.01,1.95-17.73,4.56-26.01l27.04,8.54c-1.19,3.75-2.06,7.6-2.62,11.5-.09,.67-.17,1.35-.24,2.02-.03,.24-.07,.48-.09,.72-.02,.21-.05,.42-.07,.62-.01,.03-.01,.06-.02,.09-.11,1.23-.2,2.47-.25,3.71Z"/><path class="d" d="M31.06,120.95l-27.25,7.84c-.57-1.96-1.05-3.94-1.49-5.94-.14-.63-.28-1.26-.4-1.9-.11-.52-.23-1.03-.33-1.55h.02c-.27-1.43-.51-2.87-.71-4.32-.32-2.34-.57-4.7-.75-7.09l28.27-1.97c0,.1,.03,.2,.04,.31,.06,.81,.13,1.62,.22,2.42,.08,.62,.15,1.24,.22,1.86,.21,1.51,.34,2.56,.52,3.6h.05c-.09-.47-.15-.95-.23-1.42,.48,2.87,1.12,5.71,1.93,8.5-.03-.11-.07-.23-.11-.34Z"/><path class="d" d="M87.84,172.37l7.34,.97-2.22,28.26c-2.54-.2-5.1-.51-7.66-.91-.19-.03-.37-.06-.56-.09-.44-.07-.88-.14-1.33-.22v-.02c-.6-.1-1.21-.2-1.81-.31l5.41-27.82c.1,.02,.2,.03,.3,.05,.18,.04,.35,.06,.53,.09Z"/><path class="d" d="M54.24,156.6l-18.24,21.73c-1.37-1.15-2.69-2.34-3.99-3.56h-.01c-.15-.12-.29-.27-.43-.41-.28-.26-.57-.52-.85-.79l.02-.02c-1.89-1.83-3.73-3.71-5.47-5.68l21.25-18.78c1.67,1.87,3.43,3.66,5.27,5.34,.03,.03,.06,.06,.09,.08,.71,.65,1.42,1.28,2.14,1.9,.08,.06,.15,.13,.22,.19Z"/><path class="d" d="M107.81,28.67c.24,.02,.48,.05,.72,.08-.24-.03-.48-.06-.72-.09h0Z"/><path class="d" d="M113.05,29.37c-.11-.01-.22-.03-.34-.05,.2,.03,.39,.07,.59,.1-.08-.01-.17-.03-.25-.05Zm-.53-.09c.07,.01,.13,.02,.19,.04,0,0-.01,0-.02,0-.05,0-.11-.01-.17-.03Z"/></g><polygon class="d" points="339.08 155.22 154.1 155.22 68.44 146.85 412.1 146.85 339.08 155.22"/><g><polygon class="d" points="336.78 158.64 338.99 158.64 342.4 193.65 336.78 193.65 336.78 158.64"/><polygon class="d" points="247.93 158.56 249.64 193.56 244.02 193.56 245.72 158.56 247.93 158.56"/><polygon class="d" points="156.89 158.47 154.68 158.47 151.27 193.48 156.89 193.48 156.89 158.47"/></g></g></g></svg>