<?xml version="1.0" encoding="UTF-8"?><svg xmlns="http://www.w3.org/2000/svg" viewBox="0 0 100 64.05"><defs><style>.d{fill:#353535;}</style></defs><g id="a"/><g id="b"><g id="c"><g><g><path class="d" d="M0,48.36c0,8.67,7.03,15.69,15.69,15.69s15.69-7.03,15.69-15.69-7.02-15.7-15.69-15.7S0,39.69,0,48.36Zm5.88,0c0-5.42,4.39-9.81,9.81-9.81s9.81,4.39,9.81,9.81-4.39,9.81-9.81,9.81-9.81-4.39-9.81-9.81Z"/><path class="d" d="M7.18,48.36c0,4.7,3.81,8.52,8.52,8.52s8.52-3.82,8.52-8.52-3.81-8.51-8.52-8.51-8.52,3.81-8.52,8.51Z"/></g><g><path class="d" d="M68.61,47.02c0,8.67,7.03,15.69,15.69,15.69s15.69-7.02,15.69-15.69-7.02-15.69-15.69-15.69-15.69,7.03-15.69,15.69Zm5.88,0c0-5.42,4.39-9.81,9.81-9.81s9.81,4.39,9.81,9.81-4.39,9.81-9.81,9.81-9.81-4.39-9.81-9.81Z"/><path class="d" d="M75.79,47.02c0,4.71,3.81,8.52,8.52,8.52s8.52-3.81,8.52-8.52-3.81-8.51-8.52-8.51-8.52,3.81-8.52,8.51Z"/></g><path class="d" d="M5.96,16.34c.67,.77,13,4.88,13,4.88,0,0-1.43,3.92-.96,4.78,.48,.86,4.4,1.81,4.4,1.81v1.24s9.55,.58,10.23,1.43c.03,.05,.29,.85,.66,2.06l-9.74,6.64,2.87,6.02,9.18-5.01c.69,2.32,1.23,4.15,1.23,4.15,0,0,27.05,5.26,29.15,1.05,2.1-4.2,8.79-15,8.79-15l1.34,3.54,6.31-1.82-2.39-4.4s1.91-.86,3.06-.48c1.15,.38,2.2,3.82,3.06,4.21l8.31,4.11s1.72-3.54,.86-4.11c-.86-.57-2.36,1.24-2.87,2.05-.86-.62-1.91-.95-1.91-.95,0,0,1.72-9.12-5.83-15.34-2.58-1.05-6.59-2.1-7.07-2.77-.48-.67-1.05-4.11-5.93-6.78-1.15-.48-3.25,1.81-3.25,1.81l-2.39-4.78,.48-3.15-2.78-1.53-2,1.34s-2.77-1.24-3.25,0c-.48,1.24,2.77,1.72,3.06,1.81,.28,.1-.29,.77-.29,.77l2.47,.48-2.95,.38-.67,1.05s-2.11,.48-1.72,1.15c.38,.67,2.39,.48,2.39,.48l.48,.57s1.81-.09,2-.38c.19-.29,1.34-.48,1.34-.48l1.24,2.58s-9.46,1.05-14.05,3.92c-.48-.77-3.15,1.14-9.94,2.48-5.35,.29-20.83-2.2-22.84-2.58-.86,.57-.86,.96-.86,.96l-2.01-1.15-8.41-.29s-2.49,2.48-1.82,3.25Z"/></g></g></g></svg>