<?xml version="1.0" encoding="UTF-8"?><svg xmlns="http://www.w3.org/2000/svg" viewBox="0 0 105 55.22"><defs><style>.d{fill:#353535;}</style></defs><g id="a"/><g id="b"><g id="c"><g><g><path class="d" d="M92.11,28.71c-7.12,0-12.89,5.77-12.89,12.89s5.77,12.89,12.89,12.89,12.89-5.77,12.89-12.89-5.77-12.89-12.89-12.89Zm0,23.14c-5.66,0-10.25-4.59-10.25-10.25s4.59-10.25,10.25-10.25,10.25,4.59,10.25,10.25-4.59,10.25-10.25,10.25Z"/><path class="d" d="M92.11,31.73c-5.45,0-9.86,4.41-9.86,9.86s4.41,9.86,9.86,9.86,9.86-4.42,9.86-9.86-4.42-9.86-9.86-9.86Zm0,17.92c-4.45,0-8.06-3.61-8.06-8.06s3.61-8.05,8.06-8.05,8.06,3.6,8.06,8.05-3.61,8.06-8.06,8.06Z"/><path class="d" d="M92.11,36.93c-2.57,0-4.66,2.09-4.66,4.66s2.09,4.66,4.66,4.66,4.66-2.09,4.66-4.66-2.09-4.66-4.66-4.66Zm0,8.23c-1.97,0-3.56-1.6-3.56-3.57s1.6-3.56,3.56-3.56,3.56,1.6,3.56,3.56-1.6,3.57-3.56,3.57Z"/><path class="d" d="M92.11,38.36c-1.79,0-3.24,1.45-3.24,3.24s1.45,3.24,3.24,3.24,3.24-1.45,3.24-3.24-1.45-3.24-3.24-3.24Z"/></g><g><path class="d" d="M87.68,28.66c-1.44,.39-2.67,1.04-3.73,1.85l-6.66-8.32,.45-.29-1.28-1.71-.29,.25-2.65-3.19s.79-.58,.95-.58c.14,0,.73,1.95,4.82,1.42,.44-1.56,1.17-6.69,1.12-7.08-.04-.39-5.02-1.42-6.49,2.93-.57,.14-2.66,.44-2.76,.46h-.01l-.5-.62,.05-.24-.73-.98s-.81-.04-.87-.05c-1.17-1.46-4.4-3.91-4.4-3.91l.74-.48-.1-1.46s-1.46-.44-2-.4c-.55,.05-1.42,.25-1.47,.05-.05-.2,0-1.95,.39-2.78,1.08-3.08-.29-3.71-.93-3.52-.64,.2,.09,5.42,.05,6.2-.05,.78-.2,.39-.2,.39,0,0-1.67,.39-1.95,.93-1.85,.2-1.9,.54-1.95,1.12-.05,.59,1.71,.53,2.05,.44,.35-.09,0,.59,.15,.87,.14,.3,1.9,.2,2.53,.14,.64-.04,.39-.43,.39-.87s1.17,.25,2.01,.59c.83,.34,3.76,3.27,3.76,3.27v.59l1.08,1.17s-2.1,1.62-2.15,1.12c-.05-.49-2.79-4.34-5.51-4.2-2.74,.14-16.07,10.2-16.41,10.54-.28,.28-.39,.56-.42,.65,.02-.09,.04-.36-.36-.56-.48-.24-8.3,4.25-12.5,2.68-2.58-.96-4.07-3.13-5.02-5.5-.35-.87-5.67-.01-7.67,.09-2,.09-5.22-.25-5.57,0-.34,.24-1.66,2.92-2.19,3.85-.54,.94-6.83,3.43-7.96,3.66-1.12,.25-2.73,.1-2.88,.44-.13,.33,2.71,2.96,2.87,3.07-2.08-.67-.67-.04-2.13-.08-.74,1.66-.05,2.58,.09,3.22,.14,.64-1.12,2.78-1.12,2.78,0,0-.69,1.56,0,1.37,.68-.2,4.84-5.91,5.57-6.3,.36-.2,2.91-.8,5.64-1.41-4.83,1.87-8.24,6.55-8.24,12.03,0,7.12,5.77,12.89,12.89,12.89,5.85,0,10.8-3.9,12.37-9.25,1.03,.13,1.7,.2,1.78,.2,.44-.07,2.51,2.05,3.29,2.39,.79,.34,6.06,.15,15.24,0,2.78-.04,5.23-.01,7.36-.02,.79,.34,1.66,.52,2.57,.52,1.14,0,2.21-.29,3.15-.8,.23-.04,.45-.07,.67-.11,.11,.05,.25,.09,.38,.09,.31,0,.58-.15,.74-.38,.86-.29,1.54-.69,2.03-1.25,2.07-2.41,7.72-21.73,7.62-22.06,.26-.13,3.11-1.69,2.44-1.37l.2-.13,6.79,8.48c-2.97,2.89-4.24,6.85-4.59,7.88-.54,.73-1.7,1.45-1.42,1.65,.26,.19,1.62-.22,2.79-.64,.85-.29,1.59-.6,1.77-.68,.31-.15,1.33-2.97,3.14-5.06l.34,.42,.25,.31,1.14,1.44,2.19,2.74,.75,.93,.23,.29,2.52,3.16,2.22-1.78-2.6-3.26-.23-.28-.72-.91-2.17-2.71-1.14-1.43-.25-.31-.33-.41c3.01-1.59,8.27-2.08,9.36-2.67,.24-.13,.43-.24,.61-.32,.65-.32,.84-.33,.97-.43,.14-.12-3.3-2.53-9.92-.78Zm-69.45,.28c1.16-.17,2.64,.98,3.61,1.82-1.72-.84-3.64-1.32-5.68-1.32-.25,0-.48,0-.73,.02,1.3-.27,2.34-.46,2.8-.53Zm-5.22,12.74c.02-.11,.05-.21,.08-.31-.03,.1-.06,.2-.08,.31Zm.82-1.07h0c.3-.06,2.1-.21,4.29-.38-2.19,.18-4,.33-4.3,.38Zm4.76-.42c-.59-.67-1.46-1.09-2.42-1.09-1.24,0-2.31,.69-2.86,1.71h0c-.21,.12-.39,.28-.53,.42,.46-1.43,1.8-2.46,3.39-2.46,1.15,0,2.17,.54,2.82,1.38-.13,.01-.26,.02-.4,.03Zm-5.18,3.28h0Zm-.37-.28h0c.38,1.38,1.63,2.39,3.12,2.39,.94,0,1.79-.4,2.38-1.05h0c.12,.02,.25,.04,.38,.05,.24,.04,.49,.08,.73,.12-.25-.04-.5-.08-.73-.11-.65,.81-1.65,1.32-2.76,1.32-1.8,0-3.28-1.33-3.53-3.06,.1,.1,.24,.22,.4,.34Zm6.35-3.06c.28-.02,.56-.04,.85-.07-.8-1.42-2.32-2.39-4.07-2.39-2.58,0-4.66,2.09-4.66,4.66s2.09,4.66,4.66,4.66c1.68,0,3.15-.89,3.97-2.23h0c1.15,.18,2.36,.35,3.52,.53-1.18,2.98-4.09,5.09-7.5,5.09-4.44,0-8.06-3.6-8.06-8.06s3.61-8.05,8.06-8.05c3.55,0,6.57,2.3,7.64,5.5-1.1,.08-2.35,.17-3.58,.28-.28,.02-.56,.04-.84,.06Zm9.33-.72c-.73-3.14-2.6-5.83-5.15-7.62,2.16,.44,7.88,1.34,8.53,2.23,.34,.46,.73,1.51,1.04,2.74h0c-.13,.27-2.78,2.52-4.41,2.65Zm23.09,5.35c-.26,.98-.97,1.76-1.89,2.13-.36,.13-.75,.22-1.15,.22s-.8-.08-1.16-.23c-1.16-.46-2-1.59-2-2.92,0-1.74,1.42-3.16,3.16-3.16,.52,0,1.02,.13,1.45,.36,.49,.26,.91,.64,1.2,1.1,.17,.27,.31,.57,.39,.88,.07,.26,.1,.54,.1,.81s-.03,.54-.1,.8Zm-5.06-8.28c-.24,0-.47,.05-.68,.13v-.13c.21-.08,.44-.12,.68-.12,1.1,0,2,.9,2,2,0,.57-.24,1.08-.63,1.44-.08,.01-.15,.03-.24,.04,.44-.34,.74-.88,.74-1.48,0-1.04-.84-1.87-1.87-1.87Zm20.41,1.59c-.06,.11-.2,.5-.38,1.06-.05-.07-.09-.12-.14-.18l-2.99-1.63,.09-.2-1.51-.71,.23-.32,1.2,.56,.56-.47-1.38-.64,.22-.33,1.49,.69,.56-.46-1.67-.78,.23-.32,1.77,.82,.56-.47-1.94-.92,.21-.3,2.05,.96,.57-.47-2.23-1.04,.23-.33,2.33,1.09,.57-.47-2.52-1.17,.25-.34,2.61,1.22,.56-.47-2.8-1.31,.27-.38,3.07,1.43,.33-.58-3.01-1.41,.22-.33,2.96,1.38c-1.09,3.26-2.38,6.56-2.5,6.82Zm3-8.38l-9.4-4.38c.26,.29,.46,.63,.6,1.01l8.6,4.01c-.03,.09-.06,.2-.09,.29l-8.41-3.92c.04,.2,.07,.41,.07,.63,0,.04-.01,.08-.01,.12l.6,.29-.1,.37-.54-.25c-.04,.23-.1,.44-.18,.65l.53,.25-.12,.45-.63-.3c-.11,.2-.26,.38-.41,.54l.86,.41-.11,.4-1.09-.5c-.22,.15-.44,.3-.7,.4l1.62,.75-.11,.38-2.06-.97c-.06,.01-.13,.02-.21,.03v.61l2.09,.98-.1,.36-1.99-.93v.73l1.81,.84-.11,.38-1.7-.8v.74l1.52,.71-.1,.37-1.42-.66v.73l1.23,.58-.08,.33-.42-.23c-.31-.31-.72-.45-1.12-.43h-.02c-.33,.03-.67,.16-.93,.42l-.11,.07-.47,.22-.11-.38,1.23-.58v-.73l-1.41,.66-.1-.37,1.51-.71v-.74l-1.7,.8-.1-.38,1.8-.84v-.73l-1.99,.93-.09-.36,2.08-.98v-.61c-.06-.01-.13-.02-.2-.03l-2.07,.97-.1-.38,1.62-.75c-.26-.1-.49-.25-.7-.4l-1.09,.5-.11-.4,.86-.41c-.15-.15-.3-.34-.41-.54l-.64,.3-.12-.45,.55-.25c-.08-.21-.14-.42-.19-.65l-.54,.25-.1-.37,.6-.29s0-.08,0-.12c0-.22,.02-.43,.06-.63l-8.56,3.99,.34,.58,2.98-1.4,.23,.33-3.01,1.41,.33,.58,3.07-1.43,.26,.38-2.8,1.31,.56,.47,2.62-1.22,.24,.34-2.51,1.17,.55,.47,2.34-1.09,.23,.33-2.23,1.04,.56,.47,2.06-.96,.21,.3-1.95,.92,.56,.47,1.78-.82,.22,.32-1.67,.78,.56,.46,1.49-.69,.23,.33-1.39,.64,.57,.47,1.2-.56,.22,.32-1.5,.71,.21,.44-1.3,.79h-1.62c-.15,0-.28,.12-.28,.28v.85c-.16,.08-.31,.22-.4,.38-.26-.06-.52-.11-.8-.12,.26-.41,.4-.88,.4-1.4,0-1.47-1.19-2.66-2.66-2.66-.24,0-.45,.03-.68,.08,.02-1.25,.01-2.59-.05-3.35-.14-1.72-2.24-3.66-1.9-3.86,.15-.09,.96-.54,1.93-1.05l.09,.2-.12,.06c-.19,.08-.26,.3-.17,.48v.02c-.13,.1-.19,.29-.11,.44l.31,.67c.08,.17,.31,.26,.5,.16l9.96-4.64c.23-.02,.47-.04,.72-.07-.91,.46-1.53,1.41-1.53,2.5,0,1.54,1.24,2.79,2.78,2.79s2.79-1.24,2.79-2.79c0-1.31-.9-2.4-2.1-2.71,.24-.03,.45-.06,.67-.09,.02,.03,.05,.07,.08,.09,.05,.03,.09,.06,.14,.09l10.18,4.74c-.03,.08-.05,.15-.07,.24Zm.72-2.52c-.03-.06-.08-.1-.14-.13l-7.51-3.5c1.02-.48,1.44-.96,1.73-1.14,.59-.39,.98-.25,2.01-.39,1.02-.15,3.75,1.53,4.21,2.78,.13,.35,0,1.23-.29,2.39Z"/><path class="d" d="M46.41,29.86l.28,.6,8.88-4.14c.13-.38,.33-.71,.59-1.01l-9.75,4.55Z"/><path class="d" d="M50.2,41.38c-.43-.25-.92-.38-1.45-.38-1.63,0-2.95,1.32-2.95,2.95s1.22,2.84,2.75,2.95h0c.06,0,.13,0,.19,0s.13,0,.19,0h.02c1.54-.11,2.75-1.39,2.75-2.95,0-.63-.2-1.21-.53-1.69-.25-.36-.58-.66-.97-.88Z"/></g></g></g></g></svg>