<?xml version="1.0" encoding="UTF-8"?><svg xmlns="http://www.w3.org/2000/svg" viewBox="0 0 100 60.71"><defs><style>.d{fill:#353535;}</style></defs><g id="a"/><g id="b"><g id="c"><g><path class="d" d="M82.55,38.89c-.08-.15-.15-.3-.23-.47-.25-.5-.5-1.03-.77-1.57-.75-1.54-1.56-3.18-2.37-4.83-.43-.86-.85-1.73-1.26-2.57-.98,.45-1.9,.99-2.75,1.62l1.29,2.6,2.48,5.01,.85,1.72,.26,.53,2.53,5.12,2.87-1.27s-1.22-2.48-2.89-5.89Z"/><path class="d" d="M71.92,16.46s-.06-.51-.63-1.02c-.57-.51-4.02-6.31-4.46-7.9-.45-1.58-2.17-3.9-3.26-4.41-1.08-.51-1.03-1.21-.89-1.53,.12-.32,0-.58-.58-1.22-.57-.64-2.04-.38-2.55,0-.5,.38,.2,1.6,.39,2.16,.19,.58,2.3,1.15,2.3,1.15l-.13,.58s-2.04-.45-2.8,0c-.77,.45-2.04,1.78-2.37,2.23-.32,.45,.32,1.28,.96,.83,3.19-2.75,4.39-1.35,4.91-.51,.51,.83,1.28,2.74,1.28,2.74,0,0-2.36,2.23-3.26,2.55-.89,.31-1.59-.13-1.59-.13l.07-.31c.06-.32,.25-.65,0-.77-.26-.13-3.32,.12-3.7,.45-.39,.32,.12,.64,.38,.89,.26,.26-2.93,1.02-2.93,1.02l-.26-.13c-.26-.12-6.51,1.59-12.31,1.92-5.81,.31-18.75-1.66-18.88-1.47-.13,.19-20.02-.7-19.78,0,.38,1.15,11.04-.16,14.93,2.49l-.96,.45s-2.11-.89-2.93-1.15c-.83-.26-4.47,.51-4.85,.58-.38,.07-.32,1.46-.07,1.97,.26,.51,2.49,2.04,2.49,2.04,0,0,12.7,7.78,14.42,8.81,1.73,1.02,6.82,1.27,7.28,1.91,.45,.64,2.68,1.79,3.12,1.92,.45,.12,.26,2.93,.51,4.53-1.57,.48-3.01,.92-4.36,1.33-1.13,.34-2.18,.66-3.17,.96-2.8,.84-5.05,1.52-6.86,2.08-.5,.15-.97,.29-1.41,.44-.15,.05-.3,.09-.45,.14-5.29,1.71-5.56,2.24-5.33,3.99,.12,.95,2.86,.67,6.43-.14,.15-.04,.3-.07,.46-.1,.47-.11,.93-.22,1.41-.35,2.23-.56,4.66-1.25,6.92-1.96,1.12-.34,2.19-.68,3.19-1.01,3.15-1.02,5.47-1.85,5.58-1.93,.38-.26,1.79,1.97,2.37,2.74,.57,.77,15.81,.89,16.9-.32,1.08-1.21,3-7.72,3.31-9.43,.32-1.73-.12-1.78,.96-2.23,1.08-.45,1.34,.38,2.16-1.42,1.59-5.69,6.13-9.23,6.13-9.23l5.15,10.41c.85-.64,1.77-1.18,2.75-1.62-2.26-4.62-4.31-8.81-4.91-10.06,5.93-2.17,12.05-.7,12.05-.7,0,0,.57,.7,1.01,1.08,.45,.38,4.08,1.47,4.78,1.59,.7,.13,2.49,.51,3,0-9.25-9.89-21.94-4.91-21.94-4.91Zm-54.86,.89l1.31-.65s5.36,2.27,6.42,2.59c1.05,.31,3.41,3.31,3.41,3.31l-11.13-5.26Zm24.75,10.97s1.95-7.27,2.14-7.43c.19-.16,4.66,1.27,4.76,1.78,.09,.5-6.41,5.2-6.89,5.65Z"/><g><path class="d" d="M84.38,28.06c-2.31,0-4.49,.5-6.46,1.4-.98,.45-1.9,.99-2.75,1.62-3.88,2.84-6.4,7.43-6.4,12.6,0,8.62,6.99,15.61,15.61,15.61s15.62-6.99,15.62-15.61-7-15.62-15.62-15.62Zm0,28.37c-7.04,0-12.76-5.7-12.76-12.75,0-4.05,1.89-7.66,4.83-10,.83-.65,1.75-1.21,2.72-1.65,1.58-.7,3.35-1.1,5.2-1.1,7.05,0,12.76,5.7,12.76,12.76s-5.7,12.75-12.76,12.75Z"/><path class="d" d="M84.38,36.3c-4.08,0-7.38,3.31-7.38,7.38s3.31,7.38,7.38,7.38,7.38-3.31,7.38-7.38-3.31-7.38-7.38-7.38Zm0,13.03c-3.12,0-5.64-2.53-5.64-5.64s2.53-5.65,5.64-5.65,5.65,2.53,5.65,5.65-2.53,5.64-5.65,5.64Z"/><path class="d" d="M84.38,38.55c-2.83,0-5.13,2.3-5.13,5.13s2.3,5.13,5.13,5.13,5.13-2.3,5.13-5.13-2.3-5.13-5.13-5.13Z"/></g><g><path class="d" d="M15.3,30.12c-8.45,0-15.3,6.84-15.3,15.29s6.85,15.3,15.3,15.3,15.3-6.84,15.3-15.3-6.85-15.29-15.3-15.29Zm0,24.86c-5.29,0-9.56-4.28-9.56-9.57s4.27-9.56,9.56-9.56,9.56,4.28,9.56,9.56-4.28,9.57-9.56,9.57Z"/><path class="d" d="M15.3,39.88c-3.06,0-5.53,2.48-5.53,5.53s2.48,5.54,5.53,5.54,5.54-2.48,5.54-5.54-2.48-5.53-5.54-5.53Zm0,9.76c-2.34,0-4.23-1.89-4.23-4.23s1.89-4.23,4.23-4.23,4.23,1.89,4.23,4.23-1.89,4.23-4.23,4.23Z"/><path class="d" d="M15.3,41.57c-2.12,0-3.84,1.72-3.84,3.84s1.72,3.84,3.84,3.84,3.84-1.72,3.84-3.84-1.72-3.84-3.84-3.84Z"/></g></g></g></g></svg>