<?xml version="1.0" encoding="UTF-8"?><svg xmlns="http://www.w3.org/2000/svg" viewBox="0 0 105 59.4"><defs><style>.d{fill:#353535;}</style></defs><g id="a"/><g id="b"><g id="c"><g><g><path class="d" d="M91.72,32.84c-7.34,0-13.28,5.95-13.28,13.28s5.95,13.28,13.28,13.28,13.28-5.95,13.28-13.28-5.95-13.28-13.28-13.28Zm0,23.85c-5.83,0-10.56-4.73-10.56-10.56s4.73-10.56,10.56-10.56,10.56,4.73,10.56,10.56-4.73,10.56-10.56,10.56Z"/><path class="d" d="M91.72,35.95c-5.62,0-10.16,4.55-10.16,10.16s4.55,10.16,10.16,10.16,10.16-4.55,10.16-10.16-4.55-10.16-10.16-10.16Zm0,18.46c-4.59,0-8.3-3.71-8.3-8.3s3.72-8.3,8.3-8.3,8.3,3.71,8.3,8.3-3.72,8.3-8.3,8.3Z"/><path class="d" d="M91.72,41.31c-2.65,0-4.81,2.15-4.81,4.81s2.15,4.8,4.81,4.8,4.81-2.15,4.81-4.8-2.15-4.81-4.81-4.81Zm0,8.48c-2.03,0-3.67-1.64-3.67-3.67s1.65-3.67,3.67-3.67,3.67,1.65,3.67,3.67-1.64,3.67-3.67,3.67Z"/><path class="d" d="M91.72,42.78c-1.84,0-3.34,1.49-3.34,3.34s1.49,3.34,3.34,3.34,3.34-1.49,3.34-3.34-1.5-3.34-3.34-3.34Z"/></g><g><path class="d" d="M21.72,32.84c-7.33,0-13.28,5.95-13.28,13.28s5.95,13.28,13.28,13.28,13.28-5.95,13.28-13.28-5.95-13.28-13.28-13.28Zm0,21.58c-4.59,0-8.3-3.71-8.3-8.3s3.72-8.3,8.3-8.3,8.3,3.72,8.3,8.3-3.71,8.3-8.3,8.3Z"/><path class="d" d="M21.72,41.31c-2.65,0-4.81,2.15-4.81,4.81s2.15,4.8,4.81,4.8,4.81-2.15,4.81-4.8-2.15-4.81-4.81-4.81Zm0,8.48c-2.03,0-3.67-1.64-3.67-3.67s1.65-3.67,3.67-3.67,3.67,1.65,3.67,3.67-1.65,3.67-3.67,3.67Z"/><path class="d" d="M21.72,42.78c-1.84,0-3.34,1.49-3.34,3.34s1.49,3.34,3.34,3.34,3.34-1.49,3.34-3.34-1.49-3.34-3.34-3.34Z"/></g><g><path class="d" d="M85.75,32.82l-3.37-5.62,.91-.34s2.18-.16,2.88-.79c2.25-1.69,1.05-8.79,0-8.86-3.65,0-5.2,1.83-5.62,1.9-.42,.07-11.88-19.12-12.23-19.12-2.67,3.72,1.41,10.68,1.41,10.68,0,0-2.95,.42-3.87,.7,.35-1.97-2.6-3.3-3.3-3.37-.21-2.46-1.05-1.97-1.48-1.83-.42,.14-.35,3.87,.07,4.43,1.12-.14,1.34-1.34,1.34-1.9,3.02,.42,2.81,3.09,2.81,3.09l-1.48,.63s-.21,.77-.35,1.27c-1.48,.7-4.08,1.48-3.8,2.39,.28,.91,4.29-.7,4.29-.7,0,0,0,1.05-.07,1.62-1.55,.07-10.54,7.31-11.53,8.29,0-1.34-.98-.98-.91-1.05-14.97,10.75-17.64,.91-17.85,.63-.21-.28-.35-.28-1.05-.28,.63-2.25-13.64-1.69-14.69-1.34-1.05,.35-2.46,3.02-2.46,3.02l-1.12-2.95-.42-1.48s-.21-1.4-.35-2.53c.56,.7,2.88-.21,2.81-.28-1.05-11.6-3.65-9.98-4.29-9.91s-.77,1.12-.77,1.12c0,0-.49-.07-.91,.35-.42,.42,1.48,7.17,1.9,8.36-.14,.56,.49,3.09,.49,3.09,0,0-.14,.92-.14,1.83,.49,.84,.7,4.29,1.05,4.78-.84,.77-2.6,.91-3.58,.98-.98,.07-4.64,4.57-5.2,5.55-4.01-.49-4.85,.84-4.85,.84l.35,1.2s2.46,.56,2.95,.56c.28,.84-2.04,8.01-2.04,8.01,0,0,.84,.07,1.62-.07,1.27,2.32,4.71,2.32,4.71,2.32,0,0,1.83,.21,2.81,.14-2.46,3.44,4.15,4.15,4.15,4.15,0,0,27.13,.21,28.46,.28,4.99,1.76,22.35,.91,23.97,.63,1.62-.28,7.03-4.99,6.26-5.41-3.51-1.41,3.37-17.43,3.44-18.2,.07-.77,2.6-1.62,2.6-1.62,0,0,2.53,4.08,3.73,6.11-7.17,4.5-7.38,14.55-6.82,14.76,1.97,.56,6.39-2.11,6.39-2.81-.49-4.71,3.58-7.59,3.58-7.59l6.12,9.84,1.69-.98s-5.27-9-5.83-10.05c1.97-1.69,14.2-.77,14.13-.98-7.03-7.45-16.52-3.52-16.52-3.52Zm-34.23-3.44c.24-.05,1.49-.1,3.23-.15l-5.44,2.54c.92-1.23,1.81-2.3,2.21-2.38Zm-.98,9.63l-1.37-1.3s-2.57-1.3-2.57-2c0,0,1.19-1.85,2.42-3.54,0,.02,0,.05,.02,.07l.1,.21-.11,.05c-.17,.08-.25,.29-.17,.46v.02c-.13,.1-.18,.28-.11,.43l.29,.63c.08,.18,.3,.25,.48,.16l9.83-4.58s.09-.06,.14-.08c.12-.1,.16-.26,.1-.41,.84-.02,1.7-.03,2.55-.04l-.02,.04c-.07,.14-.02,.31,.1,.41,.05,.03,.09,.05,.14,.08l9.75,4.55c-.02,.07-.05,.14-.07,.22l-9-4.2c.24,.28,.43,.6,.56,.96l8.23,3.84c-.03,.09-.06,.18-.09,.27l-8.04-3.75c.04,.19,.06,.39,.06,.6,0,.04,0,.08,0,.12l.57,.27-.1,.36-.51-.24c-.04,.21-.1,.42-.18,.61l.52,.24-.12,.42-.6-.28c-.11,.19-.24,.36-.39,.51l.82,.38-.11,.38-1.03-.48c-.2,.15-.43,.29-.67,.38l1.53,.71-.1,.36-1.96-.91c-.06,.01-.13,.02-.19,.03v.58l1.98,.92-.09,.34-1.88-.88v.7l1.71,.8-.1,.36-1.61-.75v.69l1.44,.67-.1,.36-1.34-.63v.7l1.17,.55-.09,.31-.39-.22c-.29-.29-.68-.43-1.06-.41h-.02c-.32,.02-.64,.15-.88,.4l-.1,.06-.46,.21-.1-.36,1.17-.55v-.7l-1.34,.63-.1-.36,1.44-.67v-.69l-1.61,.75-.1-.36,1.71-.8v-.7l-1.88,.88-.09-.34,1.98-.92v-.58c-.06,0-.13-.02-.19-.03l-1.96,.91-.1-.36,1.53-.71c-.24-.1-.46-.23-.66-.38l-1.03,.48-.11-.38,.82-.38c-.15-.15-.28-.33-.39-.51l-.6,.28-.12-.42,.52-.24c-.08-.19-.14-.4-.18-.61l-.51,.24-.1-.36,.57-.27s0-.08,0-.12c0-.21,.02-.41,.06-.6l-8.13,3.79,.32,.55,2.84-1.33,.21,.31-2.87,1.34,.32,.54,2.91-1.36,.25,.36-2.66,1.24,.53,.45,2.49-1.16,.22,.33-2.38,1.11,.53,.45,2.21-1.04,.21,.31-2.11,.99,.53,.45,1.95-.91,.2,.29-1.85,.86,.53,.45,1.68-.79,.21,.31-1.58,.74,.53,.45,1.41-.66,.21,.31-1.31,.61,.53,.45,1.15-.53,.21,.31-1.43,.67,.2,.43-1.24,.75h-.45c0-.2-.01-.32-.03-.32-2.53,.28-3.79-3.23-3.79-3.23Zm18.01,4.1l-2.79-1.53,.09-.19-1.43-.67,.21-.31,1.14,.53,.53-.45-1.31-.61,.21-.31,1.41,.66,.53-.45-1.58-.74,.21-.31,1.68,.79,.53-.45-1.85-.86,.2-.29,1.95,.91,.53-.45-2.12-.99,.21-.31,2.22,1.04,.53-.45-2.38-1.11,.22-.33,2.49,1.16,.53-.45-2.66-1.24,.25-.36,2.91,1.36,.32-.54-2.87-1.34,.21-.31,2.84,1.33,.03-.05c-.95,2.62-2.13,5.51-2.98,7.32Zm4.08-10.62l-.08-.04,.1-.21c.07-.16,0-.34-.16-.42l-6.02-2.81c2.24-.03,3.81-.05,3.81-.05,0,0,1.62,.63,2.81,1.34,0,.42-.18,1.2-.47,2.19Z"/><path class="d" d="M58.66,30.18l-9.25,4.32,.27,.57,8.43-3.93c.12-.35,.32-.68,.56-.96Z"/><path class="d" d="M60.84,34.73c1.46,0,2.64-1.18,2.64-2.64s-1.18-2.65-2.64-2.65-2.65,1.18-2.65,2.65,1.18,2.64,2.65,2.64Z"/></g></g></g></g></svg>