<?xml version="1.0" encoding="UTF-8"?><svg xmlns="http://www.w3.org/2000/svg" viewBox="0 0 100 66.74"><defs><style>.d{fill:#353535;}</style></defs><g id="a"/><g id="b"><g id="c"><g><g><path class="d" d="M20.95,39.25c-7.54,0-13.66,6.12-13.66,13.66s6.12,13.65,13.66,13.65,13.65-6.12,13.65-13.65-6.12-13.66-13.65-13.66Zm0,22.18c-4.71,0-8.53-3.82-8.53-8.53s3.82-8.53,8.53-8.53,8.53,3.82,8.53,8.53-3.82,8.53-8.53,8.53Z"/><path class="d" d="M16,52.91c0,2.73,2.21,4.94,4.94,4.94s4.94-2.21,4.94-4.94-2.21-4.94-4.94-4.94-4.94,2.21-4.94,4.94Zm1.16,0c0-2.08,1.69-3.78,3.78-3.78s3.78,1.69,3.78,3.78-1.69,3.78-3.78,3.78-3.78-1.69-3.78-3.78Z"/><path class="d" d="M20.94,49.48c1.89,0,3.43,1.54,3.43,3.43s-1.54,3.43-3.43,3.43-3.43-1.54-3.43-3.43,1.54-3.43,3.43-3.43Z"/></g><g><path class="d" d="M69.12,51.3c0,8.52,6.91,15.44,15.44,15.44s15.44-6.91,15.44-15.44-6.91-15.44-15.44-15.44-15.44,6.91-15.44,15.44Zm2.83,0c0-6.97,5.65-12.61,12.61-12.61s12.61,5.64,12.61,12.61-5.64,12.61-12.61,12.61-12.61-5.64-12.61-12.61Z"/><path class="d" d="M77.26,51.3c0,4.03,3.27,7.3,7.3,7.3s7.3-3.27,7.3-7.3-3.27-7.3-7.3-7.3-7.3,3.27-7.3,7.3Zm1.72,0c0-3.08,2.5-5.58,5.58-5.58s5.58,2.5,5.58,5.58-2.5,5.58-5.58,5.58-5.58-2.5-5.58-5.58Z"/><path class="d" d="M84.56,46.23c2.8,0,5.07,2.27,5.07,5.07s-2.27,5.07-5.07,5.07-5.07-2.27-5.07-5.07,2.27-5.07,5.07-5.07Z"/></g><path class="d" d="M1.6,20.05l8.92,1.27v.52c-.58-.04-.97-.02-1.01,.08-.18,.45,1.39,1.14,.89,2.14-.62,1.25,0,2.89,2.59,4.25-.2,.35-.25,.74-.26,.92l-6.8-.97c-1.06-.15-2.04,.58-2.19,1.64l-1.54,10.84c-.15,1.06,.58,2.04,1.64,2.19l16.83,2.4c1.06,.15,2.04-.58,2.19-1.64l1.43-10.03c1.66,.77,3.03,1.53,3.69,2.19,2.5,2.5,4.28,2.23,4.28,3.12s1.15,.1-3.14,6.5c-7.38,.86-16.13,1.8-16.13,1.8,0,0-.63,1.52,2.68,1.87,3.3,.36,4.1-1.52,13.38,.89-3.39,.98-11.07,2.23-11.07,2.23l.27,2.68,23.29-3.48s.27,4.46,4.02,4.82c2.31,.22,12.85,.53,14.1-.54,1.25-1.07,12.49-19.18,15.17-20.25,.53,1.52,.89,1.87,.89,1.87,0,0-5.62,4.64-6.42,9.81,0,.71,4.55-5,5.8-4.19,1.25,.8,4.19,4.19,4.99,4.55,.8,.36,1.34-.09,1.34-.09l2.41,4.82s1.96,.63,2.59,.36c.62-.27,.18-1.16,0-1.34-.18-.18-1.43-.45-1.34-1.7,.09-1.25,.8-9.19,.18-9.81-.62-.63-1.96-.89-2.32-1.7-.35-.8,4.55-2.41,3.12-2.59-1.43-.18-3.66-.89-7.59,.44-.8-1.34-1.52-2.77-1.52-2.77,0,0,3.66-4.19,4.28-4.28,.58-.08,9.82,1.3,11.17,1.78-.79-.66-4.34-4.08-10.37-5.08,1.25-.98,2.41-5.44,.71-8.92-1.69-3.48-5.17-8.57-6.06-9.19-.9-.62-5.27-.62-5.53,0-.27,.62-1.16,.54,2.59,3.57,.53,.36,1.87,1.7,1.61,2.14-.27,.45-2.86,3.21-3.3,3.3-.44,.09-1.52,1.16-2.41,.89-.89-.27-1.78-1.16-2.59-2.59-.8-1.43-1.96-5.26-1.61-7.05,.36-1.78,0-4.19,0-4.19L63.4,.16s-.36-.36-.54,0c-.18,.36,.27,5.26,.62,6.16,.36,.89,1.07,1.69,1.16,2.5,.09,.8,1.07,3.12,.62,3.84-.8,0-2.32-.36-2.5,0-.18,.36-.53,.71-.53,.71,0,0-2.14,.27-1.61,.98,.54,.71,.18,1.07,1.96,.98-1.07,.45-2.59,.36-2.23,1.16,.36,.8,1.52,.27,2.05,.27s2.05-1.07,2.77-.45c.71,.62,1.96,1.96,1.87,2.32-.09,.36-.36,.98-.36,.98l.27,.98-1.96-.09s-2.14-2.68-9.91-1.7c-2.32,.45-6.51,5.62-6.33,6.52-.8-.09-.98,0-1.61,.36-.62,.36-2.95,3.48-5.8,3.12-2.86-.36-4.28,.71-10.44-3.48-.27-.71,1.34-1.43-13.65-2.32-.21-.07-.64-.17-1.19-.29l.16-.57,.78,.11c.97,.14,1.83-.27,1.92-.92l.94-6.61c.09-.65-.62-1.28-1.59-1.42L2.87,11.11c-.97-.14-1.83,.27-1.92,.92L0,18.63c-.09,.64,.62,1.28,1.59,1.42Zm34.85,22.67c1.16-.18,3.12,1.07,2.68,1.43-.16,.12-3.36,.54-7.49,1.03,1.54-1.04,4.04-2.34,4.81-2.46Z"/><path class="d" d="M92.41,30.67c.12,.1,.17,.14,.16,.09,0-.02-.06-.06-.16-.09Z"/></g></g></g></svg>