<?xml version="1.0" encoding="UTF-8"?><svg xmlns="http://www.w3.org/2000/svg" viewBox="0 0 100 57.8"><defs><style>.d{fill:#353535;}</style></defs><g id="a"/><g id="b"><g id="c"><g><g><path class="d" d="M85.68,27.7c-7.91,0-14.32,6.41-14.32,14.32s6.41,14.32,14.32,14.32,14.32-6.41,14.32-14.32-6.41-14.32-14.32-14.32Zm0,26.02c-6.46,0-11.7-5.24-11.7-11.7s5.24-11.7,11.7-11.7,11.7,5.24,11.7,11.7-5.24,11.7-11.7,11.7Z"/><path class="d" d="M85.68,35.26c-3.74,0-6.77,3.03-6.77,6.77s3.03,6.77,6.77,6.77,6.77-3.03,6.77-6.77-3.03-6.77-6.77-6.77Zm0,11.95c-2.86,0-5.18-2.32-5.18-5.18s2.32-5.18,5.18-5.18,5.18,2.32,5.18,5.18-2.32,5.18-5.18,5.18Z"/><path class="d" d="M85.68,37.32c-2.6,0-4.7,2.11-4.7,4.7s2.1,4.7,4.7,4.7,4.71-2.11,4.71-4.7-2.11-4.7-4.71-4.7Z"/></g><g><path class="d" d="M17.46,28.91c-7.97,0-14.44,6.47-14.44,14.44s6.46,14.45,14.44,14.45,14.44-6.47,14.44-14.45-6.47-14.44-14.44-14.44Zm0,23.47c-4.98,0-9.02-4.04-9.02-9.03s4.04-9.02,9.02-9.02,9.03,4.04,9.03,9.02-4.04,9.03-9.03,9.03Z"/><path class="d" d="M17.46,38.13c-2.89,0-5.23,2.34-5.23,5.22s2.34,5.23,5.23,5.23,5.22-2.34,5.22-5.23-2.34-5.22-5.22-5.22Zm0,9.22c-2.21,0-3.99-1.79-3.99-3.99s1.79-3.99,3.99-3.99,3.99,1.79,3.99,3.99-1.79,3.99-3.99,3.99Z"/><path class="d" d="M17.46,39.73c-2,0-3.63,1.62-3.63,3.63s1.62,3.63,3.63,3.63,3.63-1.62,3.63-3.63-1.63-3.63-3.63-3.63Z"/></g><path class="d" d="M91.4,27.99c-4.63-2.28-10.92-.46-10.92-.46l-.47-.83-.66,.23s-3.26-6.37-4.55-8.19c.91,.76,3.64,1.52,4.4,.83,.76-.69,1.36-8.41,0-8.72-3.64-.38-3.87,.83-3.87,.83l-.99-1.52s1.52-1.97,1.29-3.04c-.23-1.06-1.44-2.2-2.12-2.12-.68,.08-2.43,4.48-2.43,4.48,0,0-3.18-.38-2.73-1.44,.46-1.06-.53-1.89-.53-1.89v-1.14l-.8-.45-1.48,.45,.08,.76s-1.14,.38-1.14-.53c-.23-4.02-1.21-3.64-1.21-3.64,0,0-.76-.08-.99-.61-.23-.53-1.37-1.21-2.73-.91-1.37,.31-1.59,2.73-.83,3.41,2.2,1.06,2.35-.61,3.26-1.06s1.21,.99,1.36,1.29c.15,.31,.68,1.97,.07,1.75-.6-.23-1.14-1.06-2.12,0-.98,1.06,1.75,1.37,1.59,2.12-.15,.76-1.21,1.14-1.21,1.14,0,0,.45,.23-.23,.68-.68,.46-2.12,.61-1.67,1.59,.46,.99,2.05-.3,2.05-.3l.15,.76s1.75,.08,1.75-.46,.91-.68,2.05-.76c1.14-.08,1.25,1.37,1.25,1.37l-.79,1.14s.99,1.81,.76,1.74c-.23-.08-1.97-.45-2.58-.38-15.17-4.32-19.72,2.88-22.07,4.78-2.35,1.89-14.87,.76-15.7-.23-.83-.98-10.85-1.67-12.89-.76-2.05,.91-2.5,3.11-2.73,3.72-.23,.61-1.06,.91-2.43,.98-1.37,.08-2.12-1.67-2.12-1.67,0,0-4.93-.38-5.27,0-.34,.38-.57,2.96,0,3.11,1.94-.23,2.54,.61,2.46,1.52-.08,.91-4.25,5.77-3.57,6.07,.68,.3,5.46,.84,6.37-.3,6.98-8.42,18.66-3.87,18.66-3.87l-1.21,1.51,.61,.46-6.85,9.7c-3.7-.61-7.16-1.16-7.33-1.13-.38,.08-2.5,.08-2.73,.38-.23,.3-.68,3.79-.53,4.02,.15,.23,1.67,1.37,2.35,1.06,.68-.3,26.4,2.88,28.67,2.96,2.66,2.12,15.1,.61,15.1,.61,0,0-.3,1.44,.45,2.05,.76,.61,8.72-.45,9.1-.76,.37-.3,.23-1.44,0-2.28-.23-.83,6.9-16.76,6.9-16.76l-1.44-.93,2.88-5.75c.76-.15,1.14,1.14,1.14,1.14l2.81-1.14,2.73,5.08-.38,.67s.23,.47,.3,.47c-9.33,5.76-7.21,15.4-7.21,15.4,0,0,1.52-.53,1.52-1.06,.53-9.33,7.13-12.36,7.13-12.36l7.89,14.03,1.67-.84s-6.52-12.74-7.58-14.26c2.89-1.44,7.43-.99,8.57-.91,1.14,.07,1.82-.23,1.74-.84ZM26.77,40.66s-3.23-.55-6.84-1.15l6.31-8.79,.53,.3s.84-.83,1.37-1.82c1.22,.53,2.43,1.95,3.19,2.65,4.31,3.98,4.86,5.46,5.16,6.14-9.64,1.64-9.71,2.63-9.71,2.66Zm10.9,2.46c-.17,.11-3.7-1.25-3.7-1.25,0,0,2.9-1.25,3.35-1.14,.46,.11,.51,2.27,.34,2.39Zm12-7.79c-.74,.46-3.58,.46-3.58,.46,0,0-.11-.85,.34-1.08,.46-.23,.68-2.05,.68-2.05,1.42-.46,4.89,0,4.89,0,0,0-1.59,2.22-2.33,2.67Z"/></g></g></g></svg>