<?xml version="1.0" encoding="UTF-8"?><svg xmlns="http://www.w3.org/2000/svg" viewBox="0 0 95.37 71.04"><defs><style>.d{fill:#353535;}</style></defs><g id="a"/><g id="b"><g id="c"><g><g><path class="d" d="M15.06,48.61c-6.19,0-11.22,5.02-11.22,11.21s5.02,11.22,11.22,11.22,11.22-5.02,11.22-11.22-5.02-11.21-11.22-11.21Zm0,20.14c-4.93,0-8.92-4-8.92-8.92s3.99-8.92,8.92-8.92,8.92,4,8.92,8.92-3.99,8.92-8.92,8.92Z"/><path class="d" d="M15.06,51.24c-4.74,0-8.58,3.84-8.58,8.58s3.84,8.58,8.58,8.58,8.58-3.84,8.58-8.58-3.84-8.58-8.58-8.58Zm0,15.59c-3.87,0-7.01-3.14-7.01-7.01s3.14-7.01,7.01-7.01,7.01,3.14,7.01,7.01-3.14,7.01-7.01,7.01Z"/><path class="d" d="M15.06,55.77c-2.24,0-4.06,1.82-4.06,4.06s1.82,4.06,4.06,4.06,4.06-1.82,4.06-4.06-1.82-4.06-4.06-4.06Zm0,7.16c-1.71,0-3.1-1.39-3.1-3.1s1.39-3.1,3.1-3.1,3.1,1.39,3.1,3.1-1.39,3.1-3.1,3.1Z"/><path class="d" d="M15.06,57.01c-1.56,0-2.82,1.26-2.82,2.82s1.26,2.82,2.82,2.82,2.82-1.26,2.82-2.82-1.26-2.82-2.82-2.82Z"/></g><g><path class="d" d="M91.01,49.64c-1.9-1.47-4.28-2.34-6.86-2.34-1.22,0-2.39,.19-3.49,.55-.84,.27-1.64,.65-2.39,1.11-2.28,1.41-4.02,3.6-4.83,6.21-.33,1.06-.51,2.18-.51,3.35,0,6.19,5.02,11.21,11.21,11.21s11.21-5.02,11.21-11.21c0-3.61-1.71-6.82-4.36-8.88Zm-6.86,17.8c-4.93,0-8.92-4-8.92-8.92,0-3.13,1.61-5.87,4.04-7.47,.73-.48,1.53-.85,2.39-1.1,.79-.23,1.63-.35,2.49-.35,4.93,0,8.92,3.99,8.92,8.92s-4,8.92-8.92,8.92Z"/><path class="d" d="M84.16,49.94c-4.74,0-8.58,3.84-8.58,8.58s3.84,8.58,8.58,8.58,8.58-3.84,8.58-8.58-3.84-8.58-8.58-8.58Zm0,15.59c-3.87,0-7.01-3.14-7.01-7.01s3.14-7.01,7.01-7.01,7.01,3.14,7.01,7.01-3.14,7.01-7.01,7.01Z"/><path class="d" d="M84.16,54.46c-2.24,0-4.06,1.82-4.06,4.06s1.82,4.06,4.06,4.06,4.06-1.82,4.06-4.06-1.82-4.06-4.06-4.06Zm0,7.16c-1.71,0-3.1-1.39-3.1-3.1s1.39-3.1,3.1-3.1,3.1,1.39,3.1,3.1-1.39,3.1-3.1,3.1Z"/><path class="d" d="M84.16,55.7c-1.56,0-2.82,1.26-2.82,2.82s1.26,2.82,2.82,2.82,2.82-1.26,2.82-2.82-1.26-2.82-2.82-2.82Z"/></g><path class="d" d="M91.01,49.64c-1.9-1.47-4.28-2.34-6.86-2.34-1.22,0-2.39,.19-3.49,.55-.84,.27-1.64,.65-2.39,1.11-2.28,1.41-4.02,3.6-4.83,6.21-2,.42-4.79-.02-4.79-.02-.84,1.03-1.12,5.88-9.81,5.6-8.68-.28-11.86,1.49-14.38,1.77-2.52,.28-12.51,2.15-15.41,2.34-2.89,.19-19.61-.47-19.61-2.71s.28-4.2,3.46-6.16c.84-.75-.1-1.59-.1-1.59l-7.32-1.07c-.1,.17-3.63,5.55-5.1,5.18-1.49-.38,1.65-2.33,2.55-5.56l-.96-.14v-1.68s1.02-.47,1.02-.94-1.49-.28-1.02-1.58c.46-1.31,.28-8.03,9.34-10.92-.37-3.92-1.31-6.72-.75-7.47,.56-.75-.46-3.45-.37-4.01,.09-.56,2.99-1.59,11.2,0,8.22,1.59,8.68,4.76,20.17,3.55,11.48-1.21,13.16,6.44,11.48,7.84-1.68,1.4-3.55,1.03-3.55,1.03,0,0-3.55,1.68-4.3,3.36-.75,1.68-4.67,8.59,5.42,9.62,10.09,1.03,7.94,.94,9.99-.37,2.05-1.31,8.68-10.46,8.68-14.1s-6.07-17.28-6.72-17.37c-.65-.1-.65-.94-.65-.94,0,0-2.15,1.12-2.15,0s.65-1.49,.65-1.49l1.12-.47s-.18-3.45-.46-4.39c-.28-.94-3.27,.09-1.4-4.39,.27-.5,1.69-.91,2.54-.46,.21,.48,.41,.97,.62,1.44-.03,.28-.12,.61-.26,.98-1.32,3.4,.09,5.6,.09,5.6l2.62-1.03s-1.15-2.57-2.44-5.56c.09-.77-.19-1.21-.62-1.44-1.5-3.48-2.96-7.06-2.91-7.57,.09-1.02,9.52,11.21,10.46,14.19,1.58,0,3.26,4.58,1.96,5.51-1.96,.09-4.48,.28-4.48,.28,0,0,17.09,11.86,14.1,20.54,1.68,.28,9.15,2.05,12.23,7.84,.49,.56-1.25,1.02-2.57,1.21Z"/><path class="d" d="M91.01,49.64c-.43,.06-.82,.1-1.07,.1-.92,0-5.41-1.04-8.42-.07-.36,.11-.71,.26-1.02,.44-.46,.27-.88,.55-1.28,.85-2.1,1.56-3.42,3.38-5.07,4.01-.22,.08-.46,.15-.71,.2,.81-2.61,2.55-4.8,4.83-6.21,.74-.46,1.54-.83,2.39-1.11,1.1-.36,2.27-.55,3.49-.55,2.58,0,4.96,.87,6.86,2.34Z"/><path class="d" d="M62.85,9.07c-.2-.47-.41-.96-.62-1.44,.43,.23,.71,.67,.62,1.44Z"/><path class="d" d="M85.45,57.9l-2.38,1.13-1.09-2.3-.13-.28-.44-.92-1.3-2.73-.69-1.44-.15-.31-.04-.09-.95-2c.74-.46,1.54-.83,2.39-1.11l.86,1.81,.13,.28,.15,.31,.69,1.44,1.32,2.77,.45,.94,.14,.29,1.05,2.18Z"/></g></g></g></svg>