<?xml version="1.0" encoding="UTF-8"?><svg xmlns="http://www.w3.org/2000/svg" viewBox="0 0 100 57.23"><defs><style>.d{fill:#353535;}</style></defs><g id="a"/><g id="b"><g id="c"><g><g><path class="d" d="M15.79,24.91C7.07,24.91,0,31.97,0,40.68s7.07,15.78,15.79,15.78,15.78-7.06,15.78-15.78-7.06-15.78-15.78-15.78Zm0,25.64c-5.45,0-9.87-4.42-9.87-9.87s4.42-9.87,9.87-9.87,9.87,4.42,9.87,9.87-4.42,9.87-9.87,9.87Z"/><path class="d" d="M15.79,34.98c-3.15,0-5.71,2.56-5.71,5.71s2.56,5.71,5.71,5.71,5.71-2.56,5.71-5.71-2.56-5.71-5.71-5.71Zm0,10.08c-2.41,0-4.37-1.95-4.37-4.37s1.96-4.36,4.37-4.36,4.37,1.95,4.37,4.36-1.95,4.37-4.37,4.37Z"/><path class="d" d="M15.79,36.72c-2.19,0-3.97,1.78-3.97,3.96s1.78,3.97,3.97,3.97,3.97-1.78,3.97-3.97-1.78-3.96-3.97-3.96Z"/></g><g><path class="d" d="M85.1,27.42c-8.23,0-14.9,6.67-14.9,14.9s6.67,14.9,14.9,14.9,14.9-6.68,14.9-14.9-6.67-14.9-14.9-14.9Zm0,27.08c-6.72,0-12.17-5.45-12.17-12.17s5.45-12.17,12.17-12.17,12.17,5.45,12.17,12.17-5.45,12.17-12.17,12.17Z"/><path class="d" d="M85.1,35.28c-3.89,0-7.05,3.16-7.05,7.05s3.16,7.05,7.05,7.05,7.05-3.16,7.05-7.05-3.16-7.05-7.05-7.05Zm0,12.43c-2.97,0-5.39-2.41-5.39-5.39s2.41-5.39,5.39-5.39,5.39,2.41,5.39,5.39-2.41,5.39-5.39,5.39Z"/><path class="d" d="M85.1,37.43c-2.7,0-4.89,2.19-4.89,4.89s2.19,4.89,4.89,4.89,4.89-2.19,4.89-4.89-2.19-4.89-4.89-4.89Z"/></g><path class="d" d="M82.89,26.17c3.04-4.11,6.34-3.39,7.05-3.66,.71-.27,1.87-3.84,.71-6.42C89.5,13.5,76.92,.21,75.84,.03c-1.07-.18-2.94,.54-5,2.86,1.07,4.46,3.48,4.73,7.85,6.25-1.78,1.96-1.07,2.68-.54,3.39,.54,.71-3.12,2.41-3.12,2.41,0,0-1.34-1.79-1.87-2.23-.54-.44,3.03-.98,2.68-1.87-.36-.89-2.68-.44-2.68-.44l-1.43-.72-.62-.27-2.77,1.43,.27,1.52c-1.96,2.23-2.05,2.05-1.87,3.21,.18,1.16,3.48-2.14,3.48-2.14l.09,.71,.71-.18,.71,1.79s-4.46,.8-5.35,.71c-.89-.09-.71-.36-.45-1.69,.8-5.09-10.89-8.83-17.13-8.39-6.25,.44-7.41,7.76-7.76,9.19-2.23,1.16-5.53,.09-9.19-.54-3.66-.62-7.49-3.03-8.66-2.86,0-.98-1.61-5.26-2.59-5.35-9.73-.36-10.98-1.78-12.41-1.96-1.43-.18-1.25,.71-1.69,1.07-.45,.36-3.66-.45-3.84,0-.18,.45,3.75,3.93,4.1,4.28,19.63,8.12,12.4,7.05,18.11,9.99,5.71,2.95,15.7,10,12.58,10.35-3.1,.35-20.61-6.5-20.88-6.6,.04,.05,.5,.65,1.69,1.25,1.25,.62,6.34,4.1,6.42,5.44,.02,.34-.79,1.12-2.02,2.1-3.26-2.55-11.98-8.85-12.35-9.14-.44-.36-1.96-1.25-2.68-1.07-.71,.18-1.07,1.34-1.07,1.34,0,0-.98-.36-1.69-.89-.71-.54-.62,1.16-1.25,2.5-.62,1.34,1.52,1.52,1.52,1.52,0,0-.54,1.34-.54,2.41,0,.73,6.74,5.41,11.01,8.31-1.94,1.28-3.43,2.22-3.43,2.22l.09,3.12,14.36-2.51c2.52,1.49,5.88,3.96,6.61,4.56,1.07,.89,1.25,2.68,3.48,3.66,2.23,.98,33.11,.62,33.11,.62,1.07-.01-3.12-12.67-.18-13.56,2.94-.89,8.65-5.45,8.65-5.45l.45,2.23,.98,.18,3.66,9.64,1.16,1.07,1.78-1.07-.27-1.34s1.34,.18,1.61-.09c1.07-1.34-1.16-8.48-1.34-9.46,2.23-3.48,6.96-2.77,6.87-2.86-2.5-2.59-9.19-2.77-10.35-2.5Zm-52.52,13.71l2.37-.41,.27,1.96s-1.4-.74-2.64-1.55Zm35.3-6.48s-2.14-4.55-1.96-6.42c.18-1.87,7.05-4.55,7.76-4.02,.71,.54-4.91,10.53-5.8,10.44Z"/></g></g></g></svg>