<?xml version="1.0" encoding="UTF-8"?><svg xmlns="http://www.w3.org/2000/svg" viewBox="0 0 100 63.88"><defs><style>.d{fill:#353535;}</style></defs><g id="a"/><g id="b"><g id="c"><g><g><path class="d" d="M85.41,34.66c-8.06,0-14.59,6.53-14.59,14.58s6.53,14.58,14.59,14.58,14.58-6.53,14.58-14.58-6.53-14.58-14.58-14.58Zm0,26.19c-6.41,0-11.6-5.2-11.6-11.6s5.19-11.6,11.6-11.6,11.6,5.19,11.6,11.6-5.19,11.6-11.6,11.6Z"/><path class="d" d="M85.41,38.09c-6.17,0-11.16,5-11.16,11.16s4.99,11.16,11.16,11.16,11.16-5,11.16-11.16-5-11.16-11.16-11.16Zm0,20.28c-5.04,0-9.12-4.08-9.12-9.12s4.08-9.12,9.12-9.12,9.11,4.08,9.11,9.12-4.08,9.12-9.11,9.12Z"/><path class="d" d="M85.41,43.97c-2.91,0-5.28,2.36-5.28,5.28s2.36,5.28,5.28,5.28,5.28-2.36,5.28-5.28-2.36-5.28-5.28-5.28Zm0,9.31c-2.23,0-4.03-1.81-4.03-4.04s1.81-4.03,4.03-4.03,4.03,1.8,4.03,4.03-1.81,4.04-4.03,4.04Z"/><path class="d" d="M85.41,45.58c-2.02,0-3.66,1.64-3.66,3.66s1.64,3.67,3.66,3.67,3.66-1.64,3.66-3.67-1.64-3.66-3.66-3.66Z"/></g><g><path class="d" d="M15.29,33.3c-8.44,0-15.29,6.84-15.29,15.29s6.85,15.29,15.29,15.29,15.29-6.85,15.29-15.29-6.85-15.29-15.29-15.29Zm0,24.85c-5.28,0-9.55-4.28-9.55-9.55s4.27-9.56,9.55-9.56,9.56,4.28,9.56,9.56-4.28,9.55-9.56,9.55Z"/><path class="d" d="M15.29,43.06c-3.05,0-5.53,2.48-5.53,5.53s2.48,5.53,5.53,5.53,5.53-2.48,5.53-5.53-2.48-5.53-5.53-5.53Zm0,9.76c-2.33,0-4.23-1.89-4.23-4.23s1.89-4.23,4.23-4.23,4.23,1.89,4.23,4.23-1.89,4.23-4.23,4.23Z"/><path class="d" d="M15.29,44.75c-2.12,0-3.84,1.72-3.84,3.84s1.72,3.84,3.84,3.84,3.84-1.72,3.84-3.84-1.72-3.84-3.84-3.84Z"/></g><path class="d" d="M95.44,37.27s-8.08-4.68-10.01-4.5c-1.93,.18-5.78,1.1-5.78,1.1,0,0-1.19-3.12-2.2-5.05,1.56-1.56,4.68,0,4.87-.92-1.1-18.63-7.35-15.88-7.35-15.88l-2.29,2.94-.73-3.3s-1.65-.46-3.4-.28c.91-5.37-.82-8.35-.82-8.35l-.74-.09c0-.46-.92-3.03-1.83-2.94-.92,.09-2.85,3.58-1.75,4.96,1.1,1.38,2.66-.64,2.66-.64h1.1c.74,0,.83,5.32,.83,5.32l-.27,1.93s-.19,.55-.83,.74c-.64,.18-2.66-.55-3.67,0-1.01,.55,2.75,1.74,1.29,1.65-1.47-.09-2.48,.09-2.11,.8,.37,.71,2.11,.3,2.11,.3l.18,.83c.19,.83,2.85,.28,2.85,.28l.28,1.65-1.38,1.01s-.37-.64-1.01-1.38c-.65-.73-13.59-3.86-17.35-2.21-3.77,1.65-6.98,7.63-7.81,7.99-6.88,2.48-13.86-.55-14.69-1.19-.55-1.74-.92-3.86-1.84-4.4-7.62-.28-10.92-2.94-12.39-2.3-1.47,.64-2.48-.28-3.94,0-1.47,.28,5.32,6.52,8.17,7.16,2.85,.64,4.13,5.51,4.96,5.32,6.7,.64,12.02,7.62,12.02,7.62,0,0-.09,3.21-.64,3.21s-7.99-4.77-9-4.68c-1.01,.09,3.95,3.77,3.86,6.34-3.6,1.84-2.46,3.99-2.24,4.35l-2.26-3.25-7.99-7.34s-4.5-2.57-5.23-2.48c-.73,.09-.18,6.52,0,7.25,.08,.33,5.38,3.74,11.58,7.36l-10.25,2.05,.69,3.12,14.2-2.52c6.25,3.48,12.36,6.49,14.26,6.33,0,0-.09,.46,0,.55,17.63,2.39,28-.83,27.45-1.56-3.76-5.42-.46-11.38,0-12.49,.74,1.29,1.75,1.29,1.84,1.38,1.93-8.9,6.15-12.58,6.15-12.58,0,0,1.2,2.94,1.93,4.59-2.5,1.59-6.45,8.91-6.77,9.18,2.92-.74,4.67-3.67,5.86-4.22,1.19-.55,2.02,1.29,2.02,1.29l1.93-1.29,5.51,10.83,1.93-.83-1.56-3.39s-1.2,.82,.64-1.01c1.84-1.84-.37-5.88-.37-5.88,0,0,.46-1.74,1.1-2.48,.64-.73,8.26,0,8.26,0Zm-44.89,1.56c-1.2,.55-2.85,0-2.85,0,0,0-1.1-2.02-1.38-2.57-.27-.55,4.59-2.39,4.59-2.39,0,0,.55-.55,1.19-.58,.64-.03,2.02,1.04,2.02,1.04,0,0-2.39,3.95-3.58,4.5Z"/></g></g></g></svg>