<?xml version="1.0" encoding="UTF-8"?><svg xmlns="http://www.w3.org/2000/svg" viewBox="0 0 100 56.91"><defs><style>.d{fill:#353535;}</style></defs><g id="a"/><g id="b"><g id="c"><g><g><path class="d" d="M87.61,31.96c-6.84,0-12.39,5.55-12.39,12.39s5.55,12.39,12.39,12.39,12.39-5.55,12.39-12.39-5.55-12.39-12.39-12.39Zm0,22.24c-5.44,0-9.86-4.41-9.86-9.85s4.41-9.86,9.86-9.86,9.85,4.41,9.85,9.86-4.41,9.85-9.85,9.85Z"/><path class="d" d="M87.61,34.87c-5.24,0-9.48,4.24-9.48,9.48s4.24,9.48,9.48,9.48,9.48-4.25,9.48-9.48-4.25-9.48-9.48-9.48Zm0,17.22c-4.28,0-7.74-3.47-7.74-7.74s3.47-7.74,7.74-7.74,7.74,3.47,7.74,7.74-3.47,7.74-7.74,7.74Z"/><path class="d" d="M87.61,39.87c-2.48,0-4.48,2.01-4.48,4.48s2.01,4.48,4.48,4.48,4.48-2.01,4.48-4.48-2.01-4.48-4.48-4.48Zm0,7.91c-1.89,0-3.43-1.54-3.43-3.43s1.53-3.43,3.43-3.43,3.43,1.53,3.43,3.43-1.53,3.43-3.43,3.43Z"/><path class="d" d="M87.61,41.24c-1.72,0-3.11,1.39-3.11,3.11s1.39,3.12,3.11,3.12,3.11-1.39,3.11-3.12-1.39-3.11-3.11-3.11Z"/></g><g><path class="d" d="M23.91,31.79c-6.93,0-12.55,5.62-12.55,12.56s5.62,12.55,12.55,12.55,12.56-5.62,12.56-12.55-5.62-12.56-12.56-12.56Zm0,20.41c-4.33,0-7.85-3.52-7.85-7.85s3.52-7.85,7.85-7.85,7.85,3.51,7.85,7.85-3.51,7.85-7.85,7.85Z"/><path class="d" d="M23.91,39.81c-2.51,0-4.54,2.04-4.54,4.54s2.03,4.54,4.54,4.54,4.54-2.04,4.54-4.54-2.03-4.54-4.54-4.54Zm0,8.02c-1.92,0-3.47-1.55-3.47-3.47s1.56-3.47,3.47-3.47,3.47,1.55,3.47,3.47-1.56,3.47-3.47,3.47Z"/><path class="d" d="M23.91,41.19c-1.74,0-3.15,1.41-3.15,3.15s1.41,3.16,3.15,3.16,3.15-1.41,3.15-3.16-1.41-3.15-3.15-3.15Z"/></g><path class="d" d="M74.85,49.8s-37.16,.69-37.42,.43c-.26-.26,0-2.7,0-2.7H9.93s-5.66-.09-5.83-.52c-.17-.44-.35-2.79-.44-3.31-.09-.52-2.26,.61-2.78-.78-.52-1.39,.26-6.96,6.18-11.49,.52-1.39,.61-3.83-.35-4.35-.96-.52-4.7-.78-5.31-1.3-.61-.52-3.65-5.74,1.74-10.01,5.39-4.26,10.35-3.39,10.35-3.39,0,0-1.13-2.44-.78-4.09,.35-1.65,.78-2.79,2.44-2.35,1.65,.44,2.35,3.74,4.61,5.31,2.26,1.57,4.61,2.35,5.22,3.92,.61,1.57-.17,3.22-.87,3.57-.7,.35-.35,4.79,5.05,3.57,1.31-.35,4.09-2.44,5.13-2.26,1.04,.17,5.74,2.87,5.74,4.18s.87,2.09,4.18,1.91c3.31-.17,16.18-8.01,19.58-7.83,3.39,.17,2.26-.26,2.26-.26l-1.91-1.28h-1.65v.67l-1.65,.78s-.96-.61-1.3-.87c-.35-.26-4,1.48-4.18,.78-.17-.7-1.3-.52,3.83-2.26,.09-.78,.44-1.74,.44-1.74l1.65-.35,.26-1.22,2.09-.17,.17,.7s1.48,1.83,2.7,2.96l1.22,1.13s1.31-.44,2.61-1.74c1.31-1.3,2.26-3.31,1.83-3.74-.44-.44-6.35-7.66-4.61-9.66C69.28,.02,68.67-.06,69.28,.02c.61,.09,8.44,11.75,10.7,11.66,2.26-.09,7.74,5.48,8.09,7.83,.35,2.35,2.09,6.87-.7,6.96-2.78,.09-4.96,1.04-5.13,2.44-.17,1.39,.17,2.44,.17,2.44,0,0,9.22-3.04,15.75,4.26-3.92,.61-8.27,.26-8.27,.26l-2.26,7.22-1.57,.87-2.96-5.13s-2.96,.26-6.44,6.26c-.61,.61-2.18,0-2.18,0l.35,4.7Z"/></g></g></g></svg>