<?xml version="1.0" encoding="UTF-8"?><svg xmlns="http://www.w3.org/2000/svg" viewBox="0 0 980.25 274.29"><defs><style>.d{fill:#373a40;}</style></defs><g id="a"/><g id="b"><g id="c"><g><path class="d" d="M974.13,122.72c-7.62-13.66-13.22-28.02-11.96-44.75,.2-2.6-.58-5.18-2.13-7.28-3.22-4.37-6.8-7.97-10.91-10.48-1.93-1.18-4.14-1.81-6.4-1.9-57.9-2.24-121.93-8.99-163.92-10.79-11.09-.48-22.2,.38-33.07,2.63-1.57,.33-3.18,.65-4.83,.97l1.53-7.24c1.4-6.63-2.83-13.15-9.46-14.55l-.24-.05c-6.63-1.4-13.15,2.83-14.55,9.47l-3.54,16.7c-30.4,4.3-68.39,7.66-111.85,10.28l3.61-17.06c1.4-6.63-2.83-13.15-9.47-14.55l-.24-.05c-6.63-1.4-13.15,2.83-14.55,9.47l-5,23.63c-58.61,3.03-125.63,4.9-196.53,6.07-1.22,.02-1.72-1.57-.69-2.24,26.11-17.04,59.01-35.16,105.18-55.39,3.09-1.35,3.52-5.56,.76-7.51-4.57-3.23-9.49-5.84-14.88-7.59-2.27-.74-4.73-.64-6.94,.26-42.36,17.29-84.26,37.5-125.92,59.26-5.14,2.68-10.78,4.26-16.57,4.62C186.35,73.25,75.2,90.21,14.55,125.32c-4.51,2.61-7.95,6.74-9.68,11.66-8.59,24.42-5.01,43.96,4.55,61.1,3.82,6.83,3.11,15.32-1.73,21.47-.52,.66-1.03,1.33-1.5,2-1.95,2.76-.61,6.63,2.61,7.63,21.99,6.85,44.44,9.95,72.97,12.56,2.32,.21,4.19-1.88,3.71-4.16-1.92-9.06-4.17-23.01-4.17-34.97,0-50.44,41.17-91.26,91.75-90.69,49.8,.57,89.64,40.88,89.64,90.69,0,10.95-3.46,28.54-5.05,36.07-.39,1.86,1.02,3.61,2.92,3.61h432.53c1.71,0,2.99-1.57,2.63-3.24-1.54-7.31-5.08-25.3-5.08-36.43,0-49.8,39.84-90.12,89.64-90.69,50.57-.57,91.74,40.25,91.74,90.69,0,5.89-.8,15.58-1.2,20.03-.11,1.18,.95,2.13,2.11,1.89l77.91-15.58c3.49-.7,6.79-2.16,9.64-4.3,18.84-14.1,19.6-34.59,19.76-59.58-.18-7.84-2.29-15.51-6.11-22.35Z"/><circle class="d" cx="172" cy="202.61" r="71.69"/><circle class="d" cx="780.97" cy="202.61" r="71.69"/></g></g></g></svg>