<?xml version="1.0" encoding="UTF-8"?><svg xmlns="http://www.w3.org/2000/svg" viewBox="0 0 843.91 267.13"><defs><style>.d{fill:#373a40;}</style></defs><g id="a"/><g id="b"><g id="c"><g><circle class="d" cx="121.04" cy="205.11" r="62.01" transform="translate(-109.59 145.67) rotate(-45)"/><circle class="d" cx="665.46" cy="205.11" r="62.01" transform="translate(312.94 805.65) rotate(-76.72)"/><path class="d" d="M840.61,127.95c-.73-.49-1.43-1-2.1-1.51-4.14-3.2-6.79-7.95-7.38-13.15-2.04-17.97-4.14-35.65-7.65-46.51-1.2-3.73-4.43-6.42-8.32-6.93-15.38-2.02-53.47-1.51-75.29-5.35-35.19-6.77-81.75-32.62-137.17-46.36C580.81,2.72,558.31,.12,535.77,.02c-36.97-.16-73.07,.61-109.01,2.77-4.75,.29-9.47,.82-14.15,1.64-39.86,6.96-82.85,27.05-127.89,55.69-23.39,14.88-49.91,24.22-77.47,27.18-74.39,7.98-136.26,19.37-170.54,38.3-12.09,6.67-21.39,17.53-26.39,30.4C2.99,174.86,.66,196.35,0,219c-.13,4.57,2.43,8.79,6.57,10.75,8.14,3.85,19.92,5.36,32.81,6.15,2.83,.18,5.09-2.33,4.66-5.14-1.21-7.98-1.7-14.99-1.78-23.15-.42-43.32,34.4-80.72,77.73-81.29,44-.57,79.85,34.92,79.85,78.79,0,9.43-.71,17.69-2.77,26.49-.57,2.45,1.25,4.79,3.76,4.79,43,.02,350.9,0,387.15-.02,1.66,0,2.8-1.61,2.28-3.19-3.61-11.12-3.89-27.31-3.5-32.82,2.39-40.48,35.95-72.92,76.49-74.01,44.51-1.19,80.96,34.53,80.96,78.76,0,2.73-.15,5.42-.43,8.08-.1,.94,.72,1.7,1.64,1.51,3.02-.61,6.06-1.22,9.13-1.83l74.55-12.79c6.5-1.11,11.37-6.56,11.75-13.14l3.05-52.7c0-2.51-1.22-4.88-3.31-6.29ZM513.41,19l-16.41,55.35c-.39,1.3-1.54,2.22-2.89,2.3-60.39,3.78-121.36,8.14-183.8,13.13-8.45,.68-16.95-.28-25.03-2.82l-7.78-2.44c54.43-36.67,99.87-57.78,138.5-64.38,3.69-.63,7.6-1.07,11.62-1.32,26.54-1.6,54.03-2.49,83.61-2.72,1.52-.01,2.61,1.45,2.18,2.9Zm124.34,37.11c-1.55,4.1-4.83,7.74-10.02,11.12-2.11,1.37-4.61,2.17-7.22,2.3-31.65,1.58-63.28,3.31-95.04,5.2-1.09,.07-1.96-.92-1.75-1.99l10.29-54.08c.23-1.22,1.36-2.05,2.59-1.9,1.61,.2,3.23,.45,4.82,.76,49.71,9.51,82.62,21.12,95.19,33.59,1.33,1.32,1.78,3.29,1.13,5.01Z"/></g></g></g></svg>