<?xml version="1.0" encoding="UTF-8"?><svg xmlns="http://www.w3.org/2000/svg" viewBox="0 0 826.96 293.31"><defs><style>.d{fill:#373a40;}</style></defs><g id="a"/><g id="b"><g id="c"><g><path class="d" d="M821,162.63l-1.22-.89c-3.93-2.85-6.38-7.31-6.64-12.15-.45-8.35,.76-18.92,1.19-31.28,.27-7.8-1.36-15.56-4.83-22.55-15.3-30.77-41.32-57.82-73.57-82.72-5.65-4.36-12.46-6.98-19.59-7.46-104.21-7.13-198.31-7.81-278.87,.15-21.24,2.1-42.13,6.88-62.13,14.35-35.94,13.43-71.58,33.87-111.07,59.17-18.72,11.99-39.74,19.92-61.71,23.31-69.75,10.75-142.32,21.95-179.58,51.29-9.02,7.1-15.47,16.98-18.47,28.07C-.59,200.72-.64,223.51,.85,250.37c.13,2.28,1.52,4.3,3.61,5.23,10.9,4.9,24.05,9.02,38.91,9.56h44.4c1.92,0,3.37-1.75,3-3.63-2.1-10.86-2.88-22.06-2.94-31.55-.15-22.19,8.38-43.66,24.11-59.32,15.46-15.39,35.97-23.87,57.79-23.87h0c21.82,0,42.34,8.48,57.79,23.87,15.73,15.66,24.25,37.13,24.11,59.32-.06,9.64-.86,21.04-3.04,32.07-.32,1.61,.9,3.12,2.55,3.12h362.18c1.64,0,2.86-1.5,2.55-3.12-2.18-11.02-2.98-22.42-3.04-32.07-.15-22.19,8.38-43.66,24.11-59.32,15.46-15.39,35.97-23.87,57.79-23.87s42.35,8.48,57.8,23.88c15.79,15.73,24.27,37.31,24.09,59.59-.04,5.29-.31,11.09-.9,17.07-.13,1.34,1.09,2.43,2.41,2.11,9.68-2.31,19.42-4.78,29.22-7.42,9.34-2.52,16.02-10.73,16.64-20.39l2.96-46.41c.31-4.94-1.93-9.69-5.93-12.6ZM485.19,21.85l-18.71,77.86c-.38,1.56-1.74,2.69-3.34,2.77-60.79,3.07-120.22,6.98-178.24,12.53-3.12,.3-4.91-3.43-2.72-5.67,13.05-13.38,46.12-44.73,91.52-69.58,5.04-2.76,10.32-5.1,15.78-6.9,15.99-5.27,32.65-8.79,49.64-10.47,13.96-1.38,28.55-2.51,43.69-3.38,1.54-.09,2.75,1.34,2.39,2.84Zm193.13,68.96c-1.33,2.05-3.62,3.28-6.06,3.36-56.61,1.97-112.18,3.88-166.7,6.3-1.47,.07-2.67-1.18-2.54-2.65l6.71-78.05c.1-1.16,1.05-2.07,2.22-2.11,17.28-.61,35.19-.92,53.64-.92,23.69,0,48.69,.51,74.82,1.51,11.31,.44,21.61,6.66,27.22,16.49,11.97,20.95,17.74,45.23,10.7,56.07Z"/><circle class="d" cx="169.73" cy="228.7" r="64.6" transform="translate(-93.5 337.43) rotate(-75.86)"/><circle class="d" cx="694.72" cy="228.7" r="64.6" transform="translate(316.5 854.72) rotate(-77.08)"/></g></g></g></svg>