<?xml version="1.0" encoding="UTF-8"?><svg xmlns="http://www.w3.org/2000/svg" viewBox="0 0 698.12 303.87"><defs><style>.d{fill:#373a40;}</style></defs><g id="a"/><g id="b"><g id="c"><g><circle class="d" cx="600.39" cy="243.26" r="60.62"/><circle class="d" cx="133.06" cy="243.26" r="60.62"/><path class="d" d="M697.1,174.69c-.29-3.13-1.5-6.13-3.56-8.51-1.68-1.96-3.56-3.71-5.64-5.25-2-1.48-3.48-3.56-4.12-5.96-4.08-15.31-9.86-29.78-21.88-41.09-3.21-3.03-6.15-6.32-8.69-9.94-14.33-20.43-52.46-65.47-78.6-85.53-7.41-5.69-16.21-9.29-25.48-10.48C483.77-.5,421.09-1.78,360.36,2.07c-16.49,1.05-32.82,3.95-48.59,8.86-46.33,14.43-92.06,42.94-136.89,76.32-9.7,7.22-21.12,11.78-33.11,13.35C50.25,112.59-1.08,152.93,.02,224.74c.21,13.98,9.43,26.21,22.85,30.13,8.35,2.44,18.95,4.17,31.82,5.19,2.29,.18,4.22-1.73,4.04-4.02-.32-4.1-.55-8.43-.55-12.78,0-41.35,33.52-74.88,74.88-74.88s74.88,33.52,74.88,74.88c0,3.81-.39,9.79-.67,13.66-.15,2.04,1.46,3.77,3.5,3.77h310.73c2.73,0,4.88-2.33,4.67-5.05-.3-3.82-.65-8.98-.65-12.38,0-41.35,33.52-74.88,74.88-74.88s74.88,33.52,74.88,74.88c0,1.23-.03,2.46-.09,3.68-.07,1.35,1.38,2.26,2.56,1.61l.03-.02c11.45-6.31,18.74-18.17,19.65-31.21,.97-13.83,1.03-27.98-.31-42.63ZM421.2,91.93c-81.91,3.15-160.39,7.13-235.26,11.99-1.59,.1-2.34-1.93-1.06-2.88l.05-.03c51.54-38.38,93.45-61.83,131.9-73.8,14.18-4.42,29.19-7.15,44.61-8.13,19.52-1.24,39.12-1.91,58.34-2.01,1.64,0,2.99,1.31,3.02,2.95l1.29,68.85c.03,1.64-1.26,3-2.89,3.06Zm138.64-4.45c-32.38,.85-64.28,1.81-95.7,2.89-1.19,.04-2.22-.82-2.38-2l-9.68-68.21c-.2-1.43,.93-2.7,2.38-2.66,18.37,.59,64.72,4.95,92.05,31.8,7.13,7.53,13.72,16.37,19.73,26.65,2.94,5.03-.56,11.38-6.39,11.53Z"/></g></g></g></svg>