<?xml version="1.0" encoding="UTF-8"?><svg xmlns="http://www.w3.org/2000/svg" viewBox="0 0 978.88 292.9"><defs><style>.d{fill:#373a40;}</style></defs><g id="a"/><g id="b"><g id="c"><g><g><circle class="d" cx="161.37" cy="226.43" r="66.47"/><circle class="d" cx="771.9" cy="226.43" r="66.47"/></g><path class="d" d="M978.79,199.12l-2.02-23.11c-.45-5.19-2.54-10.09-5.93-14.04-1.57-1.83-2.96-3.8-4.11-5.94-1.21-2.23-2.06-4.63-2.63-7.11-5.1-22.24-12.36-41.9-23.06-57.47-2.82-4.1-7.32-6.73-12.26-7.26-22.59-2.42-44.33-4.94-60.97-8.03-9.31-1.73-18.35-4.66-26.91-8.71-48.12-22.73-83.87-44.24-132.76-57.61-11.47-3.14-23.24-5.08-35.11-5.86-74.26-4.93-142.53-5.86-201.28,.53-4.38,.48-8.74,1.18-13.05,2.13-56.61,12.39-93.71,37.51-145.76,70.41-12.05,7.61-25.73,12.27-39.92,13.58-125.2,11.53-239.38,26.3-255.46,48.36C.03,164.21-1.55,199.5,.92,237.34c.47,7.13,5.6,13.11,12.59,14.62,17.49,3.78,42,6.58,65.78,8.29,1.39,.1,2.56-1,2.56-2.39-2.35-11.1-3.71-21.36-3.99-30.71,0-45.91,37.56-84.21,83.47-84.24,46.07-.02,83.56,37.45,83.56,83.51-.13,11.97-1.16,22.92-3.13,32.81,0,1.32,1.07,2.4,2.4,2.4h444.47c1.32,0,2.4-1.07,2.4-2.4-1.25-11.18-1.93-21.93-1.86-32.1,0-45.91,37.56-84.21,83.47-84.24,46.07-.02,83.56,37.45,83.56,83.51,0,7.39-.7,15.59-1.69,24.13,0,1.49,1.33,2.62,2.8,2.38,46.74-7.91,87.56-17.42,109.05-29.82,8.47-4.89,13.3-14.26,12.45-24Zm-451.47-115.54c-.32,1.63-1.71,2.83-3.37,2.93-21.79,1.3-43.27,2.78-64.46,4.45-42.49,2.54-85.47,5.37-128.85,8.45-1.6,.11-2.4-1.91-1.13-2.9,39.98-30.98,87.28-64.14,132.64-74.07,3.7-.81,7.52-1.43,11.34-1.85,20.23-2.2,41.85-3.56,65.55-4.12,.82-.02,1.46,.73,1.3,1.54l-13.01,65.57Zm38.16-2.16V19.26c0-1.7,1.37-3.08,3.07-3.08,31.1,.1,64.97,1.39,103.4,3.94,1.69,.11,3.38,.25,5.07,.41,9.72,.95,19.16,3.9,27.81,8.43,24.24,12.71,46.92,29.45,60.17,45.93,1.22,1.52,.13,3.77-1.82,3.79-66.74,.72-131.89,2.41-194.87,5.44-1.55,.07-2.84-1.16-2.84-2.71Z"/></g></g></g></svg>