<?xml version="1.0" encoding="UTF-8"?><svg xmlns="http://www.w3.org/2000/svg" viewBox="0 0 843.3 241.78"><defs><style>.d{fill:#373a40;}</style></defs><g id="a"/><g id="b"><g id="c"><g><circle class="d" cx="153.87" cy="177.59" r="64.19"/><circle class="d" cx="665.92" cy="177.59" r="64.19"/><path class="d" d="M839.73,125.16l-.09-.09c-2.94-3.04-4.84-6.94-5.42-11.13-1.82-13.21-3.85-26.14-6.65-38.04-1.03-4.37-.7-8.96,.92-13.14,.73-1.87,1.38-3.77,1.96-5.69,1.3-4.3-2.47-8.43-6.89-7.58-10.13,1.96-19.89,3.11-29.23,3.27-7.66,.13-15.29-1-22.62-3.24-63.78-19.55-123.29-35.36-175.24-44.56-69.61-12.32-141.4-1.6-204.21,30.82-15.92,8.22-32.08,17.48-48.44,27.58-8.44,5.21-18.22,7.86-28.14,7.62C142.21,66.9,48.78,85.75,8.47,144.24c-2.66,3.86-2.58,9.01,.25,12.76,4.42,5.87,7.56,14.18,9.42,24.95,.61,3.55-1.03,7.08-4.13,8.92-3.98,2.36-9.13,4.42-12.41,7.39-3.32,3-1.13,8.53,3.35,8.53H72.17c1.66,0,2.93-1.48,2.68-3.12-.89-5.8-2.68-18.36-2.68-26.08,0-45.05,36.46-81.58,81.48-81.7,44.68-.12,81.36,36,81.91,80.67,.1,7.83-1.47,20.45-2.31,26.61-.26,1.91,1.23,3.62,3.16,3.62h347.4c1.55,0,2.73-1.38,2.5-2.91-.88-5.67-2.69-18.34-2.71-26.08-.12-45.07,36.62-81.9,81.69-81.91,45.03,0,81.59,36.44,81.71,81.49,.02,6.06-.63,11.96-1.87,17.65-.44,2.03,1.32,3.86,3.37,3.48l75.79-14.15c9.27-1.73,16.19-9.5,16.85-18.91l2.13-30.6c.25-3.58-1.03-7.1-3.53-9.69Zm-225.47-73.17c-73.66,17.3-152.5,26.09-250.55,22.33,15.7-9.63,57.99-39.81,103.84-51.26,13.06-3.15,26.33-5.45,39.7-6.87,8.38-.89,16.82-.91,25.21-.17,29.85,2.63,53.78,6.43,70.29,11.7,6.47,2.06,12.15,6.12,16.11,11.64l.07,.09c3.34,4.67,.92,11.23-4.66,12.54Z"/></g></g></g></svg>