<?xml version="1.0" encoding="UTF-8"?><svg xmlns="http://www.w3.org/2000/svg" viewBox="0 0 895.61 246.93"><defs><style>.d{fill:#373a40;}</style></defs><g id="a"/><g id="b"><g id="c"><g><circle class="d" cx="162.05" cy="179.29" r="67.64"/><circle class="d" cx="760.95" cy="179.29" r="67.64"/><path class="d" d="M878.68,75.56c-2.24-8.41-8.69-15.11-17.08-17.42-79.39-21.91-142.03-17.96-216.51-21.02-36.86-1.52-73.15-8.92-108.16-20.56C495.42,2.76,447.61-3.23,390.98,1.72c-15.1,1.32-29.96,4.77-44.15,10.11-41.65,15.71-81.94,34.29-119.72,51.76-14.44,6.67-30.03,10.28-45.91,11.18C104.17,79.17,41.52,122.16,2.79,173.18c-2.68,3.53-3.53,8.14-2.11,12.34,1.97,5.82,5.17,11.39,7.14,16.78,1.22,3.33,.26,7.06-2.4,9.39-.22,.2-.45,.39-.68,.58-2.53,2.12-1.03,6.25,2.27,6.25H78.27c3.65,0,6.17-3.69,4.79-7.07-4.66-11.42-6.91-24.08-6.13-37.35,2.51-42.41,36.72-76.97,79.11-79.88,49.81-3.41,91.27,35.98,91.27,85.06,0,11.38-2.23,22.23-6.27,32.15-1.38,3.39,1.13,7.09,4.79,7.09h431.41c3.65,0,6.17-3.69,4.79-7.07-4.66-11.42-6.91-24.08-6.13-37.35,2.51-42.41,36.72-76.97,79.11-79.88,49.81-3.41,91.27,35.98,91.27,85.06,0,7.05-.86,13.9-2.47,20.45-.41,1.66,1.13,3.14,2.79,2.71l35.63-9.36c4.97-1.31,8.43-5.82,8.42-10.97-.04-39.52-2.9-72.62-11.96-106.56Zm-385.13-26.53c-86.1,12.45-155.91,27.02-222.23,33.23-2.54,.24-3.97-2.89-2.12-4.65,25.09-23.95,62.73-44.37,95.62-55.52,21.46-7.27,44.3-9.98,66.85-7.68,28.8,2.95,50.02,12.84,63.91,29.46,1.58,1.89,.42,4.8-2.02,5.15Z"/><path class="d" d="M811.25,39.2l53.39,9.99c3.62,.68,7.36-.19,10.31-2.4l19.54-14.62c2.12-1.59,1.03-4.96-1.62-5-43.83-.76-70.12,2.53-82.09,9.14-1.28,.71-.97,2.62,.47,2.89Z"/></g></g></g></svg>