<?xml version="1.0" encoding="UTF-8"?><svg xmlns="http://www.w3.org/2000/svg" viewBox="0 0 947.03 356.88"><defs><style>.d{fill:#373a40;}</style></defs><g id="a"/><g id="b"><g id="c"><g><circle class="d" cx="149.97" cy="278.92" r="77.96"/><circle class="d" cx="749.49" cy="278.92" r="77.96"/><path class="d" d="M944.54,217.99c-2.02-2.95-4.33-7.42-4.62-12.77-1.33-24.81,2.78-65.72,.19-87.51-1.65-8.12-9.26-15.96-15.23-21.7-29.06-27.91-60.24-54.97-93.87-81.05-4.07-3.15-9-5-14.14-5.31C662.98,.32,532.83-3.02,440.39,3.1c-32.55,2.93-88.63,41.2-156.73,90.66-8.83,6.42-19.31,10.19-30.21,10.85-90.86,5.57-159.11,16.67-206.61,32.84-3.57,1.21-6.75,3.35-9.17,6.24-7.85,9.36-15.71,22.24-23.58,36.55-.68,1.23-1.59,2.33-2.68,3.22-2.81,2.31-5.26,4.67-7.26,7.09-2.32,2.81-3.68,6.28-3.87,9.92-1.44,27.64,2.95,55.97,11.18,84.75,1.73,6.06,7.29,10.24,13.59,10.24h20.23c3.16,0,5.61-2.74,5.28-5.88-.37-3.5-.57-7.05-.57-10.65,0-55.22,44.76-99.98,99.98-99.98s99.98,44.76,99.98,99.98c0,3.6-.19,7.15-.57,10.65-.33,3.14,2.12,5.88,5.28,5.88h392.17c2.54,0,4.49-2.22,4.19-4.75-.46-3.87-.69-7.8-.69-11.79,0-55.22,44.76-99.98,99.98-99.98s99.98,44.76,99.98,99.98c0,2.11-.07,4.21-.2,6.29-.17,2.67,2.17,4.81,4.82,4.43,23.66-3.34,46.17-7.12,67.22-11.47,3.12-.65,5.97-2.24,8.14-4.58,8.97-9.69,14.17-27.63,16.63-45.47,.49-3.56-.32-7.18-2.35-10.14ZM530.18,23.06l-22.74,80.09c-.48,1.68-1.99,2.87-3.73,2.94-73.67,2.91-128.09,5.4-196.37,9.43-1.47,.09-2.21-1.74-1.1-2.7,39.25-33.7,105.43-87.36,135.69-90.28,25.04-1.65,53.76-2.64,85.6-2.94,1.82-.02,3.14,1.72,2.65,3.46Zm188.91,76.28c-56,1.32-110.84,2.93-164.49,4.84-2.29,.08-4.11-1.89-3.86-4.16l8.47-76.83c.23-2.09,2-3.66,4.1-3.65,35.95,.2,75.37,1.12,118.81,2.81,1.63,.06,3.09,1.01,3.82,2.47l35.3,70.98c.8,1.61-.35,3.51-2.14,3.55Zm134.76-2.59c-35.47,.53-70.51,1.17-105.11,1.92-1.55,.03-2.98-.83-3.67-2.22l-34.45-69.27c-.83-1.68,.44-3.63,2.31-3.55,23.9,1.07,48.96,2.35,75.24,3.85,4.34,.25,8.48,1.97,11.69,4.91,21.02,19.21,39.83,39.06,56.25,59.58,1.53,1.91,.18,4.75-2.26,4.78Z"/></g></g></g></svg>