<?xml version="1.0" encoding="UTF-8"?><svg xmlns="http://www.w3.org/2000/svg" viewBox="0 0 908.54 283.46"><defs><style>.d{fill:#373a40;}</style></defs><g id="a"/><g id="b"><g id="c"><g><circle class="d" cx="149.91" cy="218.41" r="65.05" transform="translate(-110.53 169.97) rotate(-45)"/><circle class="d" cx="728.27" cy="218.41" r="65.05" transform="translate(58.87 578.94) rotate(-45)"/><path class="d" d="M906.24,160.95c-1.54-2.05-3.41-3.82-5.04-5.63-2.22-2.47-3.67-5.55-4.15-8.84-1.53-10.47-.73-28.59-3.54-41.96-1.45-6.88-5.3-13.01-10.82-17.36-35.38-27.91-69.15-52.91-99.67-72.02-5.13-3.21-10.95-5.18-16.97-5.76C661.78-.63,553.06-2.01,464.99,2.33c-27.46,1.35-54.59,6.69-80.45,16.03-40.73,14.71-82.01,37.73-123.85,63.25-4.25,2.59-9.05,4.16-14,4.59-87.31,7.5-166.78,19.1-209.3,38.73-9.35,4.32-17.4,11.11-22.93,19.8C-2.42,171.23,3.93,209.01,.14,223.94c-.64,2.51,.92,5.08,3.42,5.72,18.58,4.73,39.7,8.34,62.45,11.22,1.47,.19,2.72-1.06,2.54-2.53-.61-4.98-1.43-13.5-1.43-19.94,0-45.71,37.06-82.77,82.77-82.78,44.67,0,81.54,35.81,82.76,80.47,.19,6.88-.82,18.41-1.29,23.28-.12,1.23,.85,2.28,2.08,2.28h411.64c1.27,0,2.26-1.11,2.13-2.37-.5-4.92-1.57-16.36-1.38-23.21,1.23-44.66,38.09-80.47,82.77-80.46,45.81,.01,82.67,36.81,82.76,82.62,.01,5.39-.27,11.85-.56,16.16-.07,1.02,.83,1.85,1.84,1.71,22.79-3.2,44.64-7.42,65.3-12.94,2.87-.77,5.64-1.88,8.21-3.37,9.68-5.65,16.63-13.45,20.46-23.71,1.31-3.5,1.92-7.23,1.92-10.97v-17.29c0-2.48-.8-4.9-2.29-6.88ZM510.64,19.4l-21.1,63.91c-.38,1.15-1.44,1.94-2.65,1.97-69.34,1.96-135.04,4.68-197.66,8.19-1.25,.07-1.77-1.57-.72-2.24,32.41-20.54,63.85-43.26,101.97-57,24.05-8.67,49.6-13.72,75.96-15.01,13.97-.68,28.29-1.21,42.89-1.59,.92-.02,1.6,.88,1.31,1.76Zm162.53,62.46c-51.41,.49-100.93,1.3-148.74,2.44-1.14,.03-2.04-.97-1.89-2.11l8.29-63.3c.13-.97,.95-1.7,1.93-1.72,10.17-.15,20.44-.22,30.79-.22,24.78,0,49.75,.43,74.55,1.27,1.08,.04,2.1,.49,2.84,1.27,6.9,7.32,24.68,41.28,33.75,59.93,.55,1.12-.27,2.43-1.52,2.44Zm118.63-.56c-31.7,0-62.72,.12-93.08,.34-1.28,0-2.44-.7-3.02-1.84-9.89-19.57-20.69-39-32.2-57.97-.69-1.14,.17-2.6,1.5-2.54,12.83,.59,25.57,1.29,38.18,2.09,5.03,.32,10.03,1.11,14.9,2.44,2.23,.61,4.45,1.24,6.65,1.91,7.01,2.12,13.76,5.01,20.15,8.59,20.48,11.48,37.73,23.22,51.34,35.24,4.62,4.08,1.73,11.74-4.43,11.74Z"/></g></g></g></svg>