<svg width="30" height="31" viewBox="0 0 30 31" fill="none" xmlns="http://www.w3.org/2000/svg">
<path d="M0 8C0 7.00544 0.395088 6.05161 1.09835 5.34835C1.80161 4.64509 2.75544 4.25 3.75 4.25H26.25C27.2446 4.25 28.1984 4.64509 28.9016 5.34835C29.6049 6.05161 30 7.00544 30 8V23C30 23.9946 29.6049 24.9484 28.9016 25.6516C28.1984 26.3549 27.2446 26.75 26.25 26.75H3.75C2.75544 26.75 1.80161 26.3549 1.09835 25.6516C0.395088 24.9484 0 23.9946 0 23V8ZM3.75 6.125C3.25272 6.125 2.77581 6.32254 2.42417 6.67417C2.07254 7.02581 1.875 7.50272 1.875 8V9.875H28.125V8C28.125 7.50272 27.9275 7.02581 27.5758 6.67417C27.2242 6.32254 26.7473 6.125 26.25 6.125H3.75ZM28.125 13.625H1.875V23C1.875 23.4973 2.07254 23.9742 2.42417 24.3258C2.77581 24.6775 3.25272 24.875 3.75 24.875H26.25C26.7473 24.875 27.2242 24.6775 27.5758 24.3258C27.9275 23.9742 28.125 23.4973 28.125 23V13.625Z" fill="#383838"/>
<path d="M3.75 19.25C3.75 18.7527 3.94754 18.2758 4.29917 17.9242C4.65081 17.5725 5.12772 17.375 5.625 17.375H7.5C7.99728 17.375 8.47419 17.5725 8.82582 17.9242C9.17746 18.2758 9.375 18.7527 9.375 19.25V21.125C9.375 21.6223 9.17746 22.0992 8.82582 22.4508C8.47419 22.8025 7.99728 23 7.5 23H5.625C5.12772 23 4.65081 22.8025 4.29917 22.4508C3.94754 22.0992 3.75 21.6223 3.75 21.125V19.25Z" fill="#383838"/>
</svg>
