<svg width="29" height="24" viewBox="0 0 29 24" fill="none" xmlns="http://www.w3.org/2000/svg">
<path d="M5.27392 23.3862V21.8639C5.27392 21.2802 4.92576 20.8997 4.32899 20.8997C4.03066 20.8997 3.70742 21.0012 3.48361 21.3311C3.30964 21.052 3.06104 20.8997 2.68807 20.8997C2.43935 20.8997 2.19086 20.9758 1.99186 21.2549V20.9505H1.46973V23.3862H1.99186V22.0414C1.99186 21.6102 2.21566 21.4071 2.56382 21.4071C2.91176 21.4071 3.08596 21.6355 3.08596 22.0414V23.3862H3.60809V22.0414C3.60809 21.6102 3.85658 21.4071 4.17983 21.4071C4.52799 21.4071 4.70196 21.6355 4.70196 22.0414V23.3862H5.27392ZM13.0063 20.9505H12.1611V20.2147H11.6389V20.9505H11.1665V21.4324H11.6388V22.5489C11.6388 23.1072 11.8626 23.4369 12.4594 23.4369C12.6832 23.4369 12.9317 23.3609 13.1059 23.2594L12.9566 22.8026C12.8075 22.9041 12.6335 22.9295 12.5091 22.9295C12.2605 22.9295 12.1611 22.7773 12.1611 22.5235V21.4324H13.0063V20.9505ZM17.4321 20.8996C17.1338 20.8996 16.9349 21.052 16.8105 21.2549V20.9505H16.2884V23.3862H16.8105V22.0161C16.8105 21.6102 16.9845 21.3818 17.3077 21.3818C17.4072 21.3818 17.5316 21.4072 17.631 21.4326L17.7802 20.9252C17.6807 20.8997 17.5316 20.8997 17.4321 20.8997V20.8996ZM10.7438 21.1534C10.4951 20.9758 10.1471 20.8997 9.77411 20.8997C9.17745 20.8997 8.77968 21.2042 8.77968 21.6862C8.77968 22.0923 9.07801 22.3205 9.60014 22.3967L9.84875 22.4221C10.1223 22.4728 10.2714 22.5489 10.2714 22.6758C10.2714 22.8534 10.0725 22.9803 9.72439 22.9803C9.37634 22.9803 9.10281 22.8534 8.92873 22.7266L8.68012 23.1325C8.95365 23.3354 9.32661 23.4369 9.69947 23.4369C10.3957 23.4369 10.7936 23.1072 10.7936 22.6504C10.7936 22.2191 10.4703 21.9907 9.97299 21.9146L9.72439 21.8892C9.50058 21.8638 9.32661 21.8132 9.32661 21.6609C9.32661 21.4833 9.50058 21.3818 9.77411 21.3818C10.0725 21.3818 10.3709 21.5086 10.52 21.5848L10.7438 21.1534ZM24.6177 20.8997C24.3193 20.8997 24.1204 21.052 23.996 21.2549V20.9505H23.4739V23.3862H23.996V22.0161C23.996 21.6102 24.1701 21.3818 24.4932 21.3818C24.5928 21.3818 24.7171 21.4072 24.8166 21.4326L24.9658 20.9252C24.8663 20.8997 24.7171 20.8997 24.6177 20.8997ZM17.9542 22.1683C17.9542 22.9041 18.4515 23.4369 19.2223 23.4369C19.5704 23.4369 19.819 23.3609 20.0676 23.1579L19.819 22.7266C19.6201 22.8788 19.4212 22.9548 19.1974 22.9548C18.7747 22.9548 18.4764 22.6504 18.4764 22.1683C18.4764 21.7117 18.7747 21.4071 19.1974 21.3818C19.4212 21.3818 19.6201 21.4579 19.819 21.6102L20.0676 21.1789C19.819 20.9758 19.5704 20.8997 19.2223 20.8997C18.4515 20.8997 17.9542 21.4326 17.9542 22.1683ZM22.7778 22.1683V20.9505H22.2557V21.2549C22.0816 21.0266 21.833 20.8997 21.5097 20.8997C20.8384 20.8997 20.3163 21.4326 20.3163 22.1683C20.3163 22.9041 20.8384 23.4369 21.5097 23.4369C21.8578 23.4369 22.1065 23.3101 22.2557 23.0817V23.3862H22.7778V22.1683ZM20.8632 22.1683C20.8632 21.737 21.1367 21.3818 21.5842 21.3818C22.0069 21.3818 22.3054 21.7117 22.3054 22.1683C22.3054 22.5997 22.0069 22.9548 21.5842 22.9548C21.1367 22.9294 20.8632 22.5997 20.8632 22.1683ZM14.6226 20.8997C13.9264 20.8997 13.429 21.4071 13.429 22.1683C13.429 22.9295 13.9262 23.4369 14.6474 23.4369C14.9954 23.4369 15.3436 23.3354 15.6171 23.1072L15.3684 22.7266C15.1695 22.8788 14.9209 22.9803 14.6723 22.9803C14.349 22.9803 14.0258 22.828 13.9512 22.3966H15.7166V22.1937C15.7415 21.4071 15.2939 20.8997 14.6225 20.8997H14.6226ZM14.6226 21.3564C14.9457 21.3564 15.1696 21.5595 15.2192 21.9401H13.9761C14.0258 21.6102 14.2496 21.3564 14.6226 21.3564ZM27.5764 22.1683V19.9863H27.0543V21.2549C26.8802 21.0266 26.6316 20.8997 26.3083 20.8997C25.637 20.8997 25.1149 21.4326 25.1149 22.1683C25.1149 22.9041 25.637 23.4369 26.3083 23.4369C26.6565 23.4369 26.9051 23.3101 27.0543 23.0817V23.3862H27.5764V22.1683ZM25.662 22.1683C25.662 21.737 25.9354 21.3818 26.383 21.3818C26.8057 21.3818 27.104 21.7117 27.104 22.1683C27.104 22.5997 26.8057 22.9548 26.383 22.9548C25.9354 22.9294 25.662 22.5997 25.662 22.1683ZM8.20771 22.1683V20.9505H7.68558V21.2549C7.5115 21.0266 7.26289 20.8997 6.93965 20.8997C6.26835 20.8997 5.74622 21.4326 5.74622 22.1683C5.74622 22.9041 6.26835 23.4369 6.93965 23.4369C7.28781 23.4369 7.53642 23.3101 7.68558 23.0817V23.3862H8.20771V22.1683ZM6.26835 22.1683C6.26835 21.737 6.54188 21.3818 6.98937 21.3818C7.41206 21.3818 7.7105 21.7117 7.7105 22.1683C7.7105 22.5997 7.41206 22.9548 6.98937 22.9548C6.54188 22.9294 6.26835 22.5997 6.26835 22.1683Z" fill="black"/>
<path d="M10.5698 2.45312H18.4018V16.8138H10.5698V2.45312Z" fill="#FF5F00"/>
<path d="M11.0668 9.634C11.0668 6.71624 12.4093 4.12822 14.473 2.45361C12.9564 1.23577 11.042 0.5 8.95343 0.5C4.00541 0.5 0.00244141 4.58487 0.00244141 9.634C0.00244141 14.683 4.00541 18.768 8.95331 18.768C11.0418 18.768 12.9563 18.0322 14.473 16.8143C12.4093 15.1651 11.0668 12.5518 11.0668 9.634Z" fill="#EB001B"/>
<path d="M28.9686 9.634C28.9686 14.683 24.9656 18.768 20.0177 18.768C17.9292 18.768 16.0147 18.0322 14.498 16.8143C16.5866 15.1398 17.9044 12.5518 17.9044 9.634C17.9044 6.71624 16.5617 4.12822 14.498 2.45361C16.0146 1.23577 17.9292 0.5 20.0177 0.5C24.9656 0.5 28.9687 4.6103 28.9687 9.634H28.9686Z" fill="#F79E1B"/>
</svg>
