<svg width="56" height="20" viewBox="0 0 56 20" fill="none" xmlns="http://www.w3.org/2000/svg">
<path d="M28.9617 6.54961C28.9297 9.1858 31.2065 10.6568 32.9215 11.5315C34.6836 12.4289 35.2754 13.0043 35.2684 13.8069C35.2553 15.0351 33.8629 15.5771 32.56 15.5982C30.2867 15.635 28.965 14.9559 27.9142 14.4422L27.0953 18.4525C28.1495 18.961 30.1017 19.4044 32.126 19.4238C36.8778 19.4238 39.9866 16.9689 40.0034 13.1628C40.022 8.33218 33.6192 8.0648 33.663 5.90567C33.6781 5.25097 34.275 4.55232 35.583 4.37468C36.2304 4.28495 38.0176 4.21627 40.0439 5.19283L40.8392 1.31271C39.7495 0.897455 38.349 0.499828 36.6053 0.499828C32.1328 0.499828 28.9871 2.98814 28.9617 6.54961ZM48.4811 0.834045C47.6134 0.834045 46.8822 1.36376 46.5558 2.17664L39.7681 19.1388H44.5164L45.4613 16.4058H51.2637L51.8118 19.1388H55.997L52.3449 0.834045H48.4811ZM49.1453 5.77885L50.5157 12.6525H46.7627L49.1453 5.77885ZM23.2046 0.834274L19.4617 19.1386H23.9865L27.7276 0.833817H23.2046V0.834274ZM16.5109 0.833817L11.8013 13.293L9.89615 2.69948C9.67262 1.5169 8.78984 0.834045 7.8095 0.834045H0.110762L0.00292969 1.36559C1.58345 1.72453 3.37919 2.30346 4.46714 2.9229C5.13294 3.3013 5.3228 3.63208 5.54153 4.53126L9.14986 19.1388H13.9314L21.2623 0.834045H16.5109" fill="url(#paint0_linear_808_13484)"/>
<defs>
<linearGradient id="paint0_linear_808_13484" x1="25.7456" y1="19.8034" x2="26.3189" y2="0.369689" gradientUnits="userSpaceOnUse">
<stop stop-color="#222357"/>
<stop offset="1" stop-color="#254AA5"/>
</linearGradient>
</defs>
</svg>
