<svg width="30" height="24" viewBox="0 0 30 24" fill="none" xmlns="http://www.w3.org/2000/svg">
<path d="M29.9993 18.7859C29.9993 21.3307 27.9089 23.4029 25.3419 23.4029H0.000976562V5.11696C0.000976562 2.57221 2.09137 0.5 4.65846 0.5H29.9993V18.7859Z" fill="white"/>
<path d="M21.7476 14.0965H23.6728C23.7279 14.0965 23.8562 14.0784 23.9113 14.0784C24.2781 14.0057 24.5898 13.6785 24.5898 13.2241C24.5898 12.7879 24.2781 12.4606 23.9113 12.3698C23.8562 12.3516 23.7463 12.3516 23.673 12.3516H21.7477V14.0965H21.7476Z" fill="url(#paint0_linear_808_13331)"/>
<path d="M23.4533 2.04492C21.6196 2.04492 20.1159 3.51739 20.1159 5.3532V8.78869H24.8285C24.9385 8.78869 25.0668 8.78869 25.1585 8.80681C26.222 8.8614 27.0105 9.40666 27.0105 10.3518C27.0105 11.097 26.4788 11.7333 25.4886 11.8606V11.8968C26.5704 11.9695 27.3956 12.5694 27.3956 13.4964C27.3956 14.4962 26.4788 15.1505 25.2685 15.1505H20.0977V21.876H24.9935C26.8271 21.876 28.3308 20.4037 28.3308 18.5678V2.04492H23.4533Z" fill="url(#paint1_linear_808_13331)"/>
<path d="M24.3513 10.5694C24.3513 10.1331 24.0396 9.84225 23.6728 9.78765C23.6363 9.78765 23.5445 9.76953 23.4896 9.76953H21.7476V11.3691H23.4896C23.5446 11.3691 23.6546 11.3691 23.673 11.351C24.0397 11.2964 24.3514 11.0056 24.3514 10.5693L24.3513 10.5694Z" fill="url(#paint2_linear_808_13331)"/>
<path d="M5.00648 2.04492C3.17283 2.04492 1.66916 3.51739 1.66916 5.35321V13.5147C2.60438 13.969 3.57616 14.2599 4.54806 14.2599C5.70324 14.2599 6.32664 13.5692 6.32664 12.624V8.77045H9.18715V12.6058C9.18715 14.0962 8.25204 15.3142 5.07983 15.3142C3.15455 15.3142 1.65088 14.896 1.65088 14.896V21.8578H6.5467C8.38035 21.8578 9.88402 20.3855 9.88402 18.5495V2.04515H5.00636L5.00648 2.04492Z" fill="url(#paint3_linear_808_13331)"/>
<path d="M14.2299 2.04492C12.3962 2.04492 10.8926 3.51739 10.8926 5.3532V9.6793C11.7362 8.97036 13.203 8.51594 15.5685 8.62501C16.8337 8.67961 18.1905 9.02496 18.1905 9.02496V10.4246C17.512 10.0792 16.7053 9.77013 15.6601 9.69742C13.8631 9.57022 12.7813 10.4427 12.7813 11.9695C12.7813 13.5146 13.8631 14.3871 15.6601 14.2417C16.7053 14.1689 17.5121 13.8418 18.1905 13.5146V14.9142C18.1905 14.9142 16.8519 15.2596 15.5685 15.3142C13.203 15.4231 11.7362 14.9687 10.8927 14.2599V21.8942H15.7885C17.6222 21.8942 19.1257 20.4218 19.1257 18.5859V2.04515H14.2299V2.04492Z" fill="url(#paint4_linear_808_13331)"/>
<defs>
<linearGradient id="paint0_linear_808_13331" x1="20.1125" y1="13.2262" x2="28.3526" y2="13.2262" gradientUnits="userSpaceOnUse">
<stop stop-color="#007940"/>
<stop offset="0.2285" stop-color="#00873F"/>
<stop offset="0.7433" stop-color="#40A737"/>
<stop offset="1" stop-color="#5CB531"/>
</linearGradient>
<linearGradient id="paint1_linear_808_13331" x1="20.1127" y1="11.9525" x2="28.3533" y2="11.9525" gradientUnits="userSpaceOnUse">
<stop stop-color="#007940"/>
<stop offset="0.2285" stop-color="#00873F"/>
<stop offset="0.7433" stop-color="#40A737"/>
<stop offset="1" stop-color="#5CB531"/>
</linearGradient>
<linearGradient id="paint2_linear_808_13331" x1="20.1123" y1="10.567" x2="28.3529" y2="10.567" gradientUnits="userSpaceOnUse">
<stop stop-color="#007940"/>
<stop offset="0.2285" stop-color="#00873F"/>
<stop offset="0.7433" stop-color="#40A737"/>
<stop offset="1" stop-color="#5CB531"/>
</linearGradient>
<linearGradient id="paint3_linear_808_13331" x1="1.66537" y1="11.9526" x2="10.0329" y2="11.9526" gradientUnits="userSpaceOnUse">
<stop stop-color="#1F286F"/>
<stop offset="0.4751" stop-color="#004E94"/>
<stop offset="0.8261" stop-color="#0066B1"/>
<stop offset="1" stop-color="#006FBC"/>
</linearGradient>
<linearGradient id="paint4_linear_808_13331" x1="10.8452" y1="11.9525" x2="18.972" y2="11.9525" gradientUnits="userSpaceOnUse">
<stop stop-color="#6C2C2F"/>
<stop offset="0.1735" stop-color="#882730"/>
<stop offset="0.5731" stop-color="#BE1833"/>
<stop offset="0.8585" stop-color="#DC0436"/>
<stop offset="1" stop-color="#E60039"/>
</linearGradient>
</defs>
</svg>
