<svg width="30" height="31" viewBox="0 0 30 31" fill="none" xmlns="http://www.w3.org/2000/svg">
<path d="M10 26.75H5C4.66848 26.75 4.35054 26.6183 4.11612 26.3839C3.8817 26.1495 3.75 25.8315 3.75 25.5V20.5C3.75 20.1685 3.6183 19.8505 3.38388 19.6161C3.14946 19.3817 2.83152 19.25 2.5 19.25C2.16848 19.25 1.85054 19.3817 1.61612 19.6161C1.3817 19.8505 1.25 20.1685 1.25 20.5V25.5C1.25 26.4946 1.64509 27.4484 2.34835 28.1517C3.05161 28.8549 4.00544 29.25 5 29.25H10C10.3315 29.25 10.6495 29.1183 10.8839 28.8839C11.1183 28.6495 11.25 28.3315 11.25 28C11.25 27.6685 11.1183 27.3505 10.8839 27.1161C10.6495 26.8817 10.3315 26.75 10 26.75ZM27.5 19.25C27.1685 19.25 26.8505 19.3817 26.6161 19.6161C26.3817 19.8505 26.25 20.1685 26.25 20.5V25.5C26.25 25.8315 26.1183 26.1495 25.8839 26.3839C25.6495 26.6183 25.3315 26.75 25 26.75H20C19.6685 26.75 19.3505 26.8817 19.1161 27.1161C18.8817 27.3505 18.75 27.6685 18.75 28C18.75 28.3315 18.8817 28.6495 19.1161 28.8839C19.3505 29.1183 19.6685 29.25 20 29.25H25C25.9946 29.25 26.9484 28.8549 27.6517 28.1517C28.3549 27.4484 28.75 26.4946 28.75 25.5V20.5C28.75 20.1685 28.6183 19.8505 28.3839 19.6161C28.1495 19.3817 27.8315 19.25 27.5 19.25ZM25 1.75H20C19.6685 1.75 19.3505 1.8817 19.1161 2.11612C18.8817 2.35054 18.75 2.66848 18.75 3C18.75 3.33152 18.8817 3.64946 19.1161 3.88388C19.3505 4.1183 19.6685 4.25 20 4.25H25C25.3315 4.25 25.6495 4.3817 25.8839 4.61612C26.1183 4.85054 26.25 5.16848 26.25 5.5V10.5C26.25 10.8315 26.3817 11.1495 26.6161 11.3839C26.8505 11.6183 27.1685 11.75 27.5 11.75C27.8315 11.75 28.1495 11.6183 28.3839 11.3839C28.6183 11.1495 28.75 10.8315 28.75 10.5V5.5C28.75 4.50544 28.3549 3.55161 27.6517 2.84835C26.9484 2.14509 25.9946 1.75 25 1.75ZM2.5 11.75C2.83152 11.75 3.14946 11.6183 3.38388 11.3839C3.6183 11.1495 3.75 10.8315 3.75 10.5V5.5C3.75 5.16848 3.8817 4.85054 4.11612 4.61612C4.35054 4.3817 4.66848 4.25 5 4.25H10C10.3315 4.25 10.6495 4.1183 10.8839 3.88388C11.1183 3.64946 11.25 3.33152 11.25 3C11.25 2.66848 11.1183 2.35054 10.8839 2.11612C10.6495 1.8817 10.3315 1.75 10 1.75H5C4.00544 1.75 3.05161 2.14509 2.34835 2.84835C1.64509 3.55161 1.25 4.50544 1.25 5.5V10.5C1.25 10.8315 1.3817 11.1495 1.61612 11.3839C1.85054 11.6183 2.16848 11.75 2.5 11.75ZM12.5 6.75H7.5C7.16848 6.75 6.85054 6.8817 6.61612 7.11612C6.3817 7.35054 6.25 7.66848 6.25 8V13C6.25 13.3315 6.3817 13.6495 6.61612 13.8839C6.85054 14.1183 7.16848 14.25 7.5 14.25H12.5C12.8315 14.25 13.1495 14.1183 13.3839 13.8839C13.6183 13.6495 13.75 13.3315 13.75 13V8C13.75 7.66848 13.6183 7.35054 13.3839 7.11612C13.1495 6.8817 12.8315 6.75 12.5 6.75ZM11.25 11.75H8.75V9.25H11.25V11.75ZM17.5 14.25H22.5C22.8315 14.25 23.1495 14.1183 23.3839 13.8839C23.6183 13.6495 23.75 13.3315 23.75 13V8C23.75 7.66848 23.6183 7.35054 23.3839 7.11612C23.1495 6.8817 22.8315 6.75 22.5 6.75H17.5C17.1685 6.75 16.8505 6.8817 16.6161 7.11612C16.3817 7.35054 16.25 7.66848 16.25 8V13C16.25 13.3315 16.3817 13.6495 16.6161 13.8839C16.8505 14.1183 17.1685 14.25 17.5 14.25ZM18.75 9.25H21.25V11.75H18.75V9.25ZM12.5 16.75H7.5C7.16848 16.75 6.85054 16.8817 6.61612 17.1161C6.3817 17.3505 6.25 17.6685 6.25 18V23C6.25 23.3315 6.3817 23.6495 6.61612 23.8839C6.85054 24.1183 7.16848 24.25 7.5 24.25H12.5C12.8315 24.25 13.1495 24.1183 13.3839 23.8839C13.6183 23.6495 13.75 23.3315 13.75 23V18C13.75 17.6685 13.6183 17.3505 13.3839 17.1161C13.1495 16.8817 12.8315 16.75 12.5 16.75ZM11.25 21.75H8.75V19.25H11.25V21.75ZM17.5 20.5C17.8315 20.5 18.1495 20.3683 18.3839 20.1339C18.6183 19.8995 18.75 19.5815 18.75 19.25C19.0815 19.25 19.3995 19.1183 19.6339 18.8839C19.8683 18.6495 20 18.3315 20 18C20 17.6685 19.8683 17.3505 19.6339 17.1161C19.3995 16.8817 19.0815 16.75 18.75 16.75H17.5C17.1685 16.75 16.8505 16.8817 16.6161 17.1161C16.3817 17.3505 16.25 17.6685 16.25 18V19.25C16.25 19.5815 16.3817 19.8995 16.6161 20.1339C16.8505 20.3683 17.1685 20.5 17.5 20.5ZM22.5 16.75C22.1685 16.75 21.8505 16.8817 21.6161 17.1161C21.3817 17.3505 21.25 17.6685 21.25 18V21.75C20.9185 21.75 20.6005 21.8817 20.3661 22.1161C20.1317 22.3505 20 22.6685 20 23C20 23.3315 20.1317 23.6495 20.3661 23.8839C20.6005 24.1183 20.9185 24.25 21.25 24.25H22.5C22.8315 24.25 23.1495 24.1183 23.3839 23.8839C23.6183 23.6495 23.75 23.3315 23.75 23V18C23.75 17.6685 23.6183 17.3505 23.3839 17.1161C23.1495 16.8817 22.8315 16.75 22.5 16.75ZM17.5 21.75C17.2528 21.75 17.0111 21.8233 16.8055 21.9607C16.6 22.098 16.4398 22.2932 16.3451 22.5216C16.2505 22.7501 16.2258 23.0014 16.274 23.2439C16.3222 23.4863 16.4413 23.7091 16.6161 23.8839C16.7909 24.0587 17.0137 24.1777 17.2561 24.226C17.4986 24.2742 17.7499 24.2495 17.9784 24.1549C18.2068 24.0602 18.402 23.9 18.5393 23.6945C18.6767 23.4889 18.75 23.2472 18.75 23C18.75 22.6685 18.6183 22.3505 18.3839 22.1161C18.1495 21.8817 17.8315 21.75 17.5 21.75Z" fill="#383838"/>
</svg>
