<svg width="103" height="103" viewBox="0 0 103 103" fill="none" xmlns="http://www.w3.org/2000/svg">
<path d="M101.599 89.0501L81.5409 68.9952C80.6356 68.09 79.4083 67.5872 78.1208 67.5872H74.8414C80.3942 60.4865 83.6936 51.5553 83.6936 41.8397C83.6936 18.7273 64.9632 0 41.8468 0C18.7305 0 0 18.7273 0 41.8397C0 64.9521 18.7305 83.6793 41.8468 83.6793C51.5641 83.6793 60.4968 80.3804 67.5987 74.8286V78.1074C67.5987 79.3948 68.1017 80.6218 69.007 81.527L89.0653 101.582C90.9565 103.473 94.0145 103.473 95.8855 101.582L101.579 95.8893C103.47 93.9984 103.47 90.9409 101.599 89.0501ZM41.8468 67.5872C27.6229 67.5872 16.0949 56.0812 16.0949 41.8397C16.0949 27.6182 27.6028 16.0922 41.8468 16.0922C56.0707 16.0922 67.5987 27.5981 67.5987 41.8397C67.5987 56.0611 56.0908 67.5872 41.8468 67.5872Z" fill="white"/>
<path d="M56.0352 37.2583L53.8464 30.4183C53.5289 29.4225 52.9182 28.5562 52.101 27.9425C51.2838 27.3289 50.3018 26.9991 49.2944 27H34.7056C33.6982 26.9991 32.7162 27.3289 31.899 27.9425C31.0818 28.5562 30.4711 29.4225 30.1536 30.4183L27.9648 37.2583C27.3828 37.512 26.8857 37.9393 26.5361 38.4864C26.1865 39.0335 26 39.6761 26 40.3333V48.6667C26 49.8967 26.6464 50.96 27.6 51.5383V55.3333C27.6 55.7754 27.7686 56.1993 28.0686 56.5118C28.3687 56.8244 28.7757 57 29.2 57H30.8C31.2243 57 31.6313 56.8244 31.9314 56.5118C32.2314 56.1993 32.4 55.7754 32.4 55.3333V52H51.6V55.3333C51.6 55.7754 51.7686 56.1993 52.0686 56.5118C52.3687 56.8244 52.7757 57 53.2 57H54.8C55.2243 57 55.6313 56.8244 55.9314 56.5118C56.2314 56.1993 56.4 55.7754 56.4 55.3333V51.5383C56.8854 51.2483 57.2889 50.8302 57.5698 50.3261C57.8507 49.8219 57.9991 49.2496 58 48.6667V40.3333C58 39.6761 57.8135 39.0335 57.4639 38.4864C57.1143 37.9393 56.6172 37.512 56.0352 37.2583ZM34.7056 30.3333H49.2928C49.9824 30.3333 50.5936 30.79 50.8112 31.4733L52.5808 37H31.4192L33.1872 31.4733C33.2934 31.1413 33.4971 30.8525 33.7697 30.6479C34.0422 30.4433 34.3697 30.3333 34.7056 30.3333ZM31.6 47C31.2847 46.9999 30.9726 46.9351 30.6813 46.8093C30.3901 46.6835 30.1255 46.4992 29.9026 46.2669C29.6798 46.0346 29.503 45.7589 29.3824 45.4554C29.2619 45.152 29.1999 44.8267 29.2 44.4983C29.2001 44.1699 29.2623 43.8447 29.3831 43.5414C29.5038 43.238 29.6807 42.9624 29.9037 42.7302C30.1268 42.4981 30.3915 42.314 30.6828 42.1884C30.9741 42.0628 31.2863 41.9982 31.6016 41.9983C32.2383 41.9986 32.8489 42.2622 33.299 42.7314C33.7491 43.2006 34.0018 43.8367 34.0016 44.5C34.0014 45.1633 33.7482 45.7993 33.2979 46.2681C32.8475 46.737 32.2367 47.0002 31.6 47ZM52.4 47C52.0847 46.9999 51.7726 46.9351 51.4813 46.8093C51.1901 46.6835 50.9255 46.4992 50.7026 46.2669C50.4798 46.0346 50.303 45.7589 50.1824 45.4554C50.0619 45.152 49.9999 44.8267 50 44.4983C50.0001 44.1699 50.0623 43.8447 50.1831 43.5414C50.3038 43.238 50.4807 42.9624 50.7037 42.7302C50.9268 42.4981 51.1915 42.314 51.4828 42.1884C51.7741 42.0628 52.0863 41.9982 52.4016 41.9983C53.0383 41.9986 53.6489 42.2622 54.099 42.7314C54.5491 43.2006 54.8018 43.8367 54.8016 44.5C54.8014 45.1633 54.5482 45.7993 54.0979 46.2681C53.6475 46.737 53.0367 47.0002 52.4 47Z" fill="white"/>
</svg>
