<svg xmlns="http://www.w3.org/2000/svg" width="100%" height="100%" viewBox=".001 0 250 255.739"><defs><path id="a" d="M239.76 113.065c-.305 1.852-2.412 17.908-10.98 32.408-.508.861-10.039 19.49-30.414 30.293-2.733 1.448-15.672 8.454-36.747 12.506-3.394.65-24.716 4.928-50.483 3.635-3.528-.17-29.12-.935-48.547-7.162-3.309-1.061-22.955-6.334-38.628-23.188-3.062-3.295-13.39-14.146-18.968-32.521-.743-2.46-5.104-17.144-4.984-36.104.007-1.054-.354-14.62 3.401-27.359.374-1.259-2.05 7.401.763-2.581 2.821-9.981 10.449-30.406 32.874-45.437 2.765-1.854 17.964-11.51 41.393-14.91C81.526 2.191 96.281 0 123.053 0c3.344 0 28.646-.057 47.197 4.051 5.443 1.209 22.715 4.582 38.219 16.316 1.816 1.387 13.504 10.279 21.074 25.189 1.648 3.245 8.865 16.968 11.092 38.219.24 2.284 1.47 15.087-.875 29.29m-54.72-83.358c-15.496-12.506-34.854-14.91-38.211-15.496-20.142-3.528-41.053-1.075-45.026-.707-22.489 2.057-33.468 8.574-35.165 9.564-19.434 11.277-26.717 24.073-27.183 24.78-.474.699-.41 1.053-.354 1.35.057.291.467.291.94.588.466.289 4.935 2.785 6.455 3.641 5.754 3.224 14.86 7.027 16.847 7.805 14.033 5.458 19.313 8.102 22.432 9.686 14.676 7.459 21.612 16.868 23.535 19.08 3.117 3.578 10.039 14.501 10.569 15.208.53.699 1.195.452 1.646-.297 7.219-12.033 13.121-18.516 13.971-19.548 7.98-9.686 23.074-16.423 24.418-17.023 5.643-2.524 18.82-7.643 20.785-8.455 15.674-6.455 21.244-11.27 21.195-11.39-4.425-8.995-15.328-17.555-16.854-18.786m27.183 48.844c-.234-2.29-1.174-2.29-1.174-2.29s-.354.354-.939.645c-.588.297-5.315 2.807-6.455 3.344-4.461 2.113-19.702 6.377-21.37 6.871-18.962 5.635-25.479 9.467-27.771 10.803-13.793 8.045-19.174 16.444-20.488 18.021-6.752 8.158-9.75 19.731-11.444 22.015-1.754 2.354-2.991.65-3.465-.057-.466-.707-2.792-6.512-3.23-7.516-4.107-9.509-9.346-15.539-10.915-17.32-8.456-9.565-16.197-13.708-19.314-15.554-5.932-3.521-19.463-7.315-21.485-7.812-4.348-1.053-12.654-3.633-14.91-4.34-10.746-3.344-18.671-8.223-18.904-8.398-.24-.178-.707-.291-.94.062s-.474 1.874-.586 2.878c-.121.997-.58 4.454-.707 6.921-.94 18.848 1.499 27.388 2.17 30.471 4.291 19.547 12.372 30.053 13.326 31.41 11.453 16.316 28.427 21.866 31.877 22.955 16.791 5.281 41.739 5.183 43.74 5.225 26.885.467 40.764-4.113 43.145-4.758 15.386-4.171 26.371-13.85 27.298-14.677 9.104-8.103 13.418-17.702 14.266-19.435 6.166-12.562 7.791-24.893 8.279-27.587 2.753-15.207.109-30.767-.004-31.877"/></defs><path fill="#397fc2" d="M69.982 230.16v25.578H58.847v-22.375s-.445-3.246-3.719-3.246h-5.797v25.621H38.508v-25.621H28.73v25.621H17.787v-35.455h40.615c11.354 0 11.58 9.877 11.58 9.877m40.198-9.877h26.448l-12.11 9.833H110.18v-9.833m-29.537 13.334h16.14v-1.625s0-2.32-3.881-2.32H72.35v-9.388h23.952c12.492 0 11.305 11.539 11.305 11.539v15.969l33.667-27.507h29.629c13.453 0 15.15 8.117 15.15 17.921 0 7.014-.921 17.533-14.38 17.533h-24.519l-.02-27.56-33.858 27.56-32.634-.009c-1.619 0-10.654.58-10.654-11.416.001-11.412 9.036-10.697 10.655-10.697m77.744 12.287h9.424c6.019 0 7.289-2.051 7.289-7.621 0-5.586-1.271-8.166-7.289-8.166h-9.424v15.787m-74.429.961h12.633l.007-5.195H83.966c-1.04 0-3.062 0-3.062 2.531 0 2.567 2.015 2.664 3.054 2.664m60-.961v9.834h-26.072l11.848-9.834h14.224m52.491-12.287h16.148v-1.625s0-2.32-3.889-2.32h-20.551v-9.388h23.959c12.477 0 11.297 11.539 11.297 11.539v23.907h-26.965c-1.616 0-10.651.58-10.651-11.416 0-11.412 9.036-10.697 10.652-10.697m3.317 13.248h12.627l.014-5.195h-12.633c-1.039 0-3.067 0-3.067 2.531-.001 2.567 2.02 2.664 3.059 2.664"/></svg>